<svg width="12" height="13" viewBox="0 0 12 13" fill="none" xmlns="http://www.w3.org/2000/svg">
<path d="M3.49557 9.55361C3.45986 9.59378 3.41521 9.58709 3.36164 9.53352C3.30361 9.48441 3.29468 9.442 3.33486 9.40628C3.37057 9.36611 3.41521 9.3728 3.46878 9.42637C3.52236 9.47548 3.53128 9.51789 3.49557 9.55361ZM3.21432 9.14512C3.2545 9.1987 3.2545 9.24111 3.21432 9.27236C3.17861 9.29914 3.14066 9.28352 3.10048 9.22548C3.0603 9.16745 3.0603 9.12727 3.10048 9.10495C3.14066 9.0737 3.17861 9.08709 3.21432 9.14512ZM2.80584 8.74334C2.78352 8.77459 2.7545 8.77905 2.71878 8.75673C2.67414 8.73441 2.65852 8.70762 2.67191 8.67637C2.6853 8.65405 2.71432 8.64959 2.75896 8.66298C2.80361 8.6853 2.81923 8.71209 2.80584 8.74334ZM3.01343 8.97102C2.98664 9.00227 2.95093 8.99557 2.90628 8.95093C2.86611 8.90182 2.86164 8.86611 2.89289 8.84378C2.91968 8.817 2.95539 8.8237 3.00003 8.86387C3.04021 8.91298 3.04468 8.9487 3.01343 8.97102ZM3.87727 9.72102C3.85941 9.77459 3.817 9.78798 3.75003 9.7612C3.67414 9.74334 3.64512 9.70986 3.66298 9.66075C3.68084 9.61164 3.72325 9.59602 3.79021 9.61387C3.86164 9.6362 3.89066 9.67191 3.87727 9.72102ZM4.29914 9.7545C4.29914 9.80361 4.26343 9.82816 4.192 9.82816C4.11611 9.83709 4.07816 9.81253 4.07816 9.7545C4.07816 9.70539 4.11387 9.68084 4.1853 9.68084C4.2612 9.67191 4.29914 9.69646 4.29914 9.7545ZM4.68753 9.68753C4.69646 9.73218 4.66521 9.76343 4.59378 9.78128C4.52236 9.79914 4.48218 9.78128 4.47325 9.72771C4.46432 9.67414 4.49557 9.64066 4.567 9.62727C4.63843 9.61834 4.67861 9.63843 4.68753 9.68753ZM11.1429 3.28575V9.71432C11.1429 10.2456 10.9543 10.6998 10.577 11.077C10.1998 11.4543 9.74557 11.6429 9.21432 11.6429H7.71432C7.64289 11.6429 7.5882 11.6407 7.55026 11.6362C7.51231 11.6317 7.46878 11.6206 7.41968 11.6027C7.37057 11.5849 7.33486 11.5525 7.31253 11.5056C7.29021 11.4587 7.27905 11.3974 7.27905 11.3215V9.72102C7.27905 9.28798 7.16298 8.97102 6.93084 8.77012C7.1853 8.74334 7.4141 8.70316 7.61722 8.64959C7.82035 8.59602 8.03017 8.50896 8.24669 8.38843C8.4632 8.26789 8.64401 8.11945 8.7891 7.94312C8.93419 7.76678 9.05249 7.5324 9.14401 7.23999C9.23553 6.94758 9.28128 6.61164 9.28128 6.23218C9.28128 5.692 9.10495 5.23218 8.75227 4.85271C8.91745 4.44646 8.89959 3.99111 8.6987 3.48664C8.5737 3.44646 8.39289 3.47102 8.15628 3.5603C7.91968 3.64959 7.71432 3.7478 7.54021 3.85495L7.28575 4.01566C6.87057 3.89959 6.442 3.84155 6.00003 3.84155C5.55807 3.84155 5.1295 3.89959 4.71432 4.01566C4.64289 3.96655 4.54803 3.90628 4.42972 3.83486C4.31142 3.76343 4.12503 3.67749 3.87057 3.57704C3.61611 3.4766 3.42414 3.44646 3.29468 3.48664C3.09825 3.99111 3.08262 4.44646 3.2478 4.85271C2.89512 5.23218 2.71878 5.692 2.71878 6.23218C2.71878 6.61164 2.76454 6.94646 2.85606 7.23664C2.94758 7.52682 3.06477 7.7612 3.20762 7.93977C3.35048 8.11834 3.53017 8.26789 3.74669 8.38843C3.9632 8.50896 4.17303 8.59602 4.37615 8.64959C4.57928 8.70316 4.80807 8.74334 5.06253 8.77012C4.88396 8.93084 4.77459 9.16075 4.73441 9.45986C4.64066 9.5045 4.54021 9.53798 4.43307 9.5603C4.32593 9.58262 4.1987 9.59378 4.05137 9.59378C3.90405 9.59378 3.75785 9.54579 3.61276 9.44981C3.46767 9.35383 3.34378 9.21432 3.24111 9.03128C3.15628 8.88843 3.04803 8.77236 2.91633 8.68307C2.78463 8.59378 2.67414 8.54021 2.58486 8.52236L2.45093 8.50227C2.35718 8.50227 2.29245 8.51231 2.25673 8.5324C2.22102 8.55249 2.20986 8.57816 2.22325 8.60941C2.23664 8.64066 2.25673 8.67191 2.28352 8.70316C2.3103 8.73441 2.33932 8.7612 2.37057 8.78352L2.41745 8.817C2.51566 8.86164 2.61276 8.94646 2.70874 9.07146C2.80472 9.19646 2.87503 9.3103 2.91968 9.41298L2.98664 9.567C3.04468 9.73664 3.14289 9.87392 3.28128 9.97883C3.41968 10.0837 3.56923 10.1507 3.72995 10.1797C3.89066 10.2087 4.04579 10.2244 4.19535 10.2266C4.3449 10.2288 4.46878 10.221 4.567 10.2032L4.72102 10.1764C4.72102 10.346 4.72213 10.5759 4.72437 10.8661C4.7266 11.1563 4.72771 11.3081 4.72771 11.3215C4.72771 11.4197 4.70316 11.4945 4.65405 11.5458C4.60495 11.5971 4.55584 11.6262 4.50673 11.6328C4.45762 11.6395 4.38396 11.6429 4.28575 11.6429H2.78575C2.2545 11.6429 1.80026 11.4543 1.42303 11.077C1.04579 10.6998 0.857178 10.2456 0.857178 9.71432V3.28575C0.857178 2.7545 1.04579 2.30026 1.42303 1.92303C1.80026 1.54579 2.2545 1.35718 2.78575 1.35718H9.21432C9.74557 1.35718 10.1998 1.54579 10.577 1.92303C10.9543 2.30026 11.1429 2.7545 11.1429 3.28575Z" fill="#213887"/>
</svg>
