<svg width="20" height="21" viewBox="0 0 20 21" fill="none" xmlns="http://www.w3.org/2000/svg">
<circle cx="10" cy="10.5" r="10" fill="white"/>
<path d="M16.085 12.0641V8.9359C16.2484 8.89439 16.4012 8.81934 16.534 8.71554C16.6667 8.61174 16.7763 8.48145 16.8559 8.33297C16.9356 8.18448 16.9834 8.02106 16.9964 7.85309C17.0094 7.68512 16.9873 7.51629 16.9314 7.35733C16.8756 7.19837 16.7873 7.05277 16.6721 6.92979C16.557 6.80682 16.4174 6.70916 16.2625 6.64303C16.1075 6.57689 15.9404 6.54374 15.7719 6.54568C15.6034 6.54761 15.4372 6.58459 15.2838 6.65426L14.3174 5.44668C14.4764 5.23788 14.5629 4.98291 14.5638 4.7205C14.5644 4.42458 14.4569 4.13862 14.2615 3.91635C14.0661 3.69409 13.7963 3.55081 13.5027 3.51346C13.2091 3.4761 12.9119 3.54723 12.6671 3.71349C12.4222 3.87974 12.2465 4.12967 12.173 4.41631H7.82709C7.78301 4.24191 7.7007 4.07949 7.58613 3.9408C7.47156 3.8021 7.32758 3.69061 7.16462 3.61438C7.00166 3.53814 6.82378 3.49908 6.64387 3.50002C6.46395 3.50095 6.28649 3.54186 6.12433 3.61978C5.96217 3.6977 5.81936 3.81069 5.70624 3.95056C5.59311 4.09044 5.5125 4.25371 5.47024 4.42855C5.42798 4.6034 5.42512 4.78545 5.46187 4.96154C5.49862 5.13763 5.57406 5.30335 5.68273 5.44671L4.7164 6.65432C4.56032 6.58315 4.39084 6.54609 4.21929 6.54561C3.92331 6.54498 3.63729 6.65244 3.41498 6.8478C3.19266 7.04315 3.04936 7.31295 3.01199 7.6065C2.97463 7.90005 3.04577 8.19714 3.21206 8.44194C3.37835 8.68673 3.62834 8.86239 3.91504 8.9359V12.0641C3.75172 12.1056 3.59882 12.1807 3.46609 12.2845C3.33336 12.3883 3.22369 12.5186 3.14407 12.6671C3.06445 12.8155 3.01662 12.979 3.00362 13.147C2.99062 13.3149 3.01274 13.4838 3.06857 13.6427C3.12439 13.8017 3.21271 13.9473 3.32789 14.0703C3.44308 14.1933 3.5826 14.2909 3.7376 14.357C3.89259 14.4232 4.05965 14.4563 4.22816 14.4544C4.39666 14.4524 4.56291 14.4154 4.71633 14.3457L5.6827 15.5534C5.52367 15.7621 5.43715 16.0171 5.43629 16.2795C5.43566 16.5755 5.54314 16.8614 5.73854 17.0837C5.93394 17.306 6.2038 17.4492 6.49741 17.4866C6.79102 17.5239 7.08817 17.4528 7.33302 17.2866C7.57787 17.1203 7.75356 16.8704 7.82709 16.5837H12.173C12.2171 16.7581 12.2994 16.9205 12.414 17.0592C12.5285 17.1979 12.6725 17.3094 12.8355 17.3856C12.9984 17.4619 13.1763 17.5009 13.3562 17.5C13.5361 17.4991 13.7135 17.4582 13.8757 17.3802C14.0379 17.3023 14.1807 17.1894 14.2938 17.0495C14.4069 16.9096 14.4875 16.7464 14.5298 16.5715C14.5721 16.3967 14.575 16.2146 14.5382 16.0386C14.5015 15.8625 14.4261 15.6968 14.3174 15.5534L15.2838 14.3458C15.4372 14.4151 15.6033 14.4518 15.7715 14.4535C15.9398 14.4552 16.1067 14.4219 16.2614 14.3557C16.4161 14.2895 16.5554 14.1919 16.6704 14.069C16.7853 13.9461 16.8735 13.8007 16.9293 13.6419C16.985 13.4832 17.0071 13.3145 16.9942 13.1468C16.9813 12.979 16.9337 12.8158 16.8543 12.6674C16.7749 12.519 16.6655 12.3888 16.5331 12.2849C16.4007 12.1811 16.2481 12.1059 16.085 12.0641ZM13.3468 15.0628C13.1753 15.0633 13.0059 15.1003 12.8499 15.1714L11.8836 13.9637C12.0363 13.7633 12.1223 13.5199 12.1293 13.268C12.1363 13.016 12.0641 12.7683 11.9227 12.5596L13.3468 10.9578L14.7709 12.5597C14.6295 12.7684 14.5572 13.0161 14.5643 13.2681C14.5713 13.52 14.6573 13.7633 14.8101 13.9638L13.8437 15.1714C13.6877 15.1003 13.5183 15.0633 13.3468 15.0628ZM6.15627 15.1715L5.18988 13.9639C5.34274 13.7635 5.42877 13.5201 5.43582 13.2682C5.44287 13.0162 5.37059 12.7684 5.22918 12.5598L6.65332 10.958L8.07739 12.5598C7.93598 12.7684 7.8637 13.0162 7.87076 13.2681C7.87781 13.5201 7.96384 13.7634 8.1167 13.9638L7.15037 15.1715C6.99446 15.0999 6.82491 15.0628 6.65332 15.0628C6.48174 15.0628 6.31218 15.0999 6.15627 15.1715ZM4.77093 8.84075L6.24617 10.5L4.77091 12.1593C4.69221 12.1186 4.60925 12.0866 4.52354 12.0641V8.9359C4.60926 8.9134 4.69222 8.88149 4.77093 8.84075ZM6.65329 5.93724C6.82484 5.93676 6.99432 5.89969 7.1504 5.82852L8.11673 7.03614C7.96385 7.23657 7.87781 7.47995 7.87076 7.73191C7.8637 7.98387 7.93599 8.23168 8.07742 8.44035L6.65332 10.0421L5.2292 8.44026C5.37059 8.23162 5.44287 7.98384 5.43582 7.73192C5.42877 7.47999 5.34276 7.23664 5.18992 7.03623L6.1563 5.82858C6.31235 5.89972 6.48178 5.93676 6.65329 5.93724ZM13.8437 5.82867L14.8101 7.03629C14.6573 7.23674 14.5713 7.4801 14.5643 7.73203C14.5572 7.98396 14.6295 8.23174 14.7709 8.44038L13.3468 10.0423L11.9227 8.44038C12.0641 8.23174 12.1363 7.98396 12.1293 7.73203C12.1223 7.4801 12.0363 7.23674 11.8835 7.03629L12.8498 5.82858C13.0057 5.90016 13.1752 5.93722 13.3467 5.93724C13.5183 5.93725 13.6878 5.90022 13.8437 5.82867ZM9.08729 8.37072C8.96694 8.37072 8.84929 8.33504 8.74922 8.26819C8.64916 8.20134 8.57116 8.10633 8.52511 7.99516C8.47905 7.884 8.467 7.76168 8.49048 7.64366C8.51396 7.52565 8.57191 7.41725 8.65701 7.33217C8.74212 7.24709 8.85054 7.18914 8.96858 7.16567C9.08661 7.1422 9.20896 7.15424 9.32015 7.20029C9.43134 7.24634 9.52638 7.32431 9.59324 7.42436C9.6601 7.5244 9.69579 7.64203 9.69579 7.76235C9.69563 7.92365 9.63147 8.0783 9.51739 8.19236C9.40331 8.30641 9.24862 8.37056 9.08729 8.37072ZM8.53574 8.84078C8.61442 8.88151 8.69735 8.91341 8.78304 8.9359V12.0641C8.69733 12.0866 8.61438 12.1186 8.53568 12.1593L7.0605 10.5L8.53574 8.84078ZM8.47879 13.2377C8.47879 13.1174 8.51448 12.9997 8.58134 12.8997C8.6482 12.7996 8.74324 12.7217 8.85443 12.6756C8.96562 12.6296 9.08796 12.6175 9.206 12.641C9.32404 12.6645 9.43246 12.7224 9.51756 12.8075C9.60266 12.8926 9.66062 13.001 9.6841 13.119C9.70758 13.237 9.69553 13.3593 9.64947 13.4705C9.60341 13.5817 9.52542 13.6767 9.42535 13.7435C9.32529 13.8104 9.20764 13.8461 9.08729 13.8461C8.92595 13.8459 8.77127 13.7817 8.65719 13.6677C8.54311 13.5536 8.47895 13.399 8.47879 13.2377ZM9.39154 12.0641V8.9359C9.62776 8.87428 9.83985 8.74277 10 8.55859C10.1602 8.74277 10.3723 8.87428 10.6085 8.9359V12.0641C10.3723 12.1258 10.1602 12.2573 10 12.4415C9.83985 12.2573 9.62776 12.1258 9.39154 12.0641ZM11.5213 7.76235C11.5213 7.88267 11.4856 8.0003 11.4187 8.10034C11.3519 8.20039 11.2568 8.27837 11.1457 8.32441C11.0345 8.37046 10.9121 8.38251 10.7941 8.35903C10.676 8.33556 10.5676 8.27762 10.4825 8.19253C10.3974 8.10745 10.3395 7.99905 10.316 7.88104C10.2925 7.76303 10.3046 7.6407 10.3506 7.52954C10.3967 7.41837 10.4747 7.32336 10.5747 7.25651C10.6748 7.18966 10.7924 7.15398 10.9128 7.15398C11.0741 7.15417 11.2288 7.21832 11.3429 7.33237C11.4569 7.44643 11.5211 7.60106 11.5213 7.76235ZM10.9128 12.6293C11.0331 12.6293 11.1508 12.665 11.2509 12.7318C11.3509 12.7987 11.4289 12.8937 11.475 13.0049C11.521 13.116 11.5331 13.2384 11.5096 13.3564C11.4861 13.4744 11.4282 13.5828 11.3431 13.6679C11.258 13.753 11.1495 13.8109 11.0315 13.8344C10.9135 13.8578 10.7911 13.8458 10.6799 13.7997C10.5687 13.7537 10.4737 13.6757 10.4068 13.5757C10.34 13.4756 10.3043 13.358 10.3043 13.2377C10.3045 13.0764 10.3686 12.9218 10.4827 12.8077C10.5968 12.6937 10.7515 12.6295 10.9128 12.6293ZM11.4645 12.1593C11.3858 12.1185 11.3028 12.0866 11.217 12.0641V8.9359C11.3028 8.9134 11.3858 8.88147 11.4645 8.84069L12.9397 10.5L11.4645 12.1593ZM12.3761 5.44656L11.4098 6.65426C11.1729 6.54582 10.907 6.5176 10.6526 6.57388C10.3982 6.63016 10.1691 6.76787 10 6.96611C9.83099 6.76787 9.60188 6.63016 9.34746 6.57388C9.09305 6.5176 8.82722 6.54582 8.5903 6.65426L7.62391 5.44662C7.71853 5.32058 7.78756 5.17724 7.82709 5.02468H12.173C12.2125 5.17721 12.2815 5.32053 12.3761 5.44656ZM7.62391 15.5534L8.59024 14.3457C8.82715 14.4542 9.093 14.4824 9.34743 14.4262C9.60186 14.3699 9.83099 14.2322 10 14.0339C10.1691 14.2322 10.3982 14.3699 10.6526 14.4262C10.9071 14.4824 11.1729 14.4542 11.4098 14.3458L12.3761 15.5534C12.2815 15.6795 12.2125 15.8228 12.173 15.9754H7.82709C7.78756 15.8228 7.71853 15.6795 7.62391 15.5534ZM15.229 12.1594L13.7538 10.5L15.229 8.84069C15.3078 8.88147 15.3908 8.9134 15.4765 8.9359V12.0641C15.3908 12.0867 15.3077 12.1186 15.229 12.1594ZM16.3893 7.76235C16.3893 7.88267 16.3536 8.0003 16.2867 8.10034C16.2199 8.20039 16.1248 8.27837 16.0137 8.32441C15.9025 8.37046 15.7801 8.38251 15.6621 8.35903C15.544 8.33556 15.4356 8.27762 15.3505 8.19253C15.2654 8.10745 15.2075 7.99905 15.184 7.88104C15.1605 7.76303 15.1726 7.6407 15.2186 7.52954C15.2647 7.41837 15.3427 7.32336 15.4427 7.25651C15.5428 7.18966 15.6604 7.15398 15.7808 7.15398C15.9421 7.15417 16.0968 7.21832 16.2109 7.33237C16.3249 7.44643 16.3891 7.60106 16.3893 7.76235ZM13.3468 4.11213C13.4671 4.11213 13.5848 4.14781 13.6849 4.21465C13.7849 4.2815 13.8629 4.37652 13.909 4.48768C13.955 4.59885 13.9671 4.72117 13.9436 4.83918C13.9201 4.9572 13.8622 5.0656 13.7771 5.15068C13.692 5.23576 13.5835 5.2937 13.4655 5.31718C13.3475 5.34065 13.2251 5.3286 13.1139 5.28256C13.0027 5.23651 12.9077 5.15853 12.8408 5.05849C12.774 4.95844 12.7383 4.84082 12.7383 4.7205C12.7385 4.5592 12.8026 4.40457 12.9167 4.29052C13.0308 4.17647 13.1855 4.11231 13.3468 4.11213ZM6.65329 4.11213C6.77364 4.11213 6.89129 4.14781 6.99135 4.21465C7.09142 4.2815 7.16941 4.37652 7.21547 4.48768C7.26153 4.59885 7.27358 4.72117 7.2501 4.83918C7.22662 4.9572 7.16866 5.0656 7.08356 5.15068C6.99846 5.23576 6.89004 5.2937 6.772 5.31718C6.65396 5.34065 6.53161 5.3286 6.42043 5.28256C6.30924 5.23651 6.2142 5.15853 6.14734 5.05849C6.08048 4.95844 6.04479 4.84082 6.04479 4.7205C6.04495 4.5592 6.10911 4.40455 6.22319 4.29049C6.33727 4.17643 6.49195 4.11229 6.65329 4.11213ZM3.61079 7.76235C3.61079 7.64203 3.64648 7.5244 3.71334 7.42436C3.7802 7.32431 3.87524 7.24634 3.98642 7.20029C4.09761 7.15424 4.21996 7.1422 4.338 7.16567C4.45604 7.18914 4.56446 7.24709 4.64956 7.33217C4.73466 7.41725 4.79262 7.52565 4.8161 7.64366C4.83957 7.76168 4.82752 7.884 4.78147 7.99516C4.73541 8.10633 4.65742 8.20134 4.55735 8.26819C4.45728 8.33504 4.33964 8.37072 4.21929 8.37072C4.05795 8.37056 3.90327 8.30641 3.78919 8.19236C3.67511 8.0783 3.61095 7.92365 3.61079 7.76235ZM3.61079 13.2377C3.61079 13.1174 3.64648 12.9997 3.71334 12.8997C3.7802 12.7996 3.87524 12.7217 3.98642 12.6756C4.09761 12.6296 4.21996 12.6175 4.338 12.641C4.45604 12.6645 4.56446 12.7224 4.64956 12.8075C4.73466 12.8926 4.79262 13.001 4.8161 13.119C4.83957 13.237 4.82752 13.3593 4.78147 13.4705C4.73541 13.5817 4.65742 13.6767 4.55735 13.7435C4.45728 13.8104 4.33964 13.8461 4.21929 13.8461C4.05795 13.8459 3.90327 13.7817 3.78919 13.6677C3.67511 13.5536 3.61095 13.399 3.61079 13.2377ZM6.65329 16.8879C6.53294 16.8879 6.41529 16.8522 6.31522 16.7854C6.21516 16.7185 6.13716 16.6235 6.09111 16.5124C6.04505 16.4012 6.033 16.2789 6.05648 16.1609C6.07996 16.0428 6.13791 15.9344 6.22301 15.8494C6.30811 15.7643 6.41654 15.7063 6.53458 15.6829C6.65261 15.6594 6.77496 15.6714 6.88615 15.7175C6.99734 15.7635 7.09238 15.8415 7.15924 15.9415C7.2261 16.0416 7.26179 16.1592 7.26179 16.2795C7.26163 16.4408 7.19747 16.5955 7.08339 16.7095C6.9693 16.8236 6.81462 16.8878 6.65329 16.8879ZM13.3468 16.8879C13.2264 16.8879 13.1088 16.8522 13.0087 16.7854C12.9087 16.7185 12.8307 16.6235 12.7846 16.5124C12.7386 16.4012 12.7265 16.2789 12.75 16.1609C12.7735 16.0428 12.8314 15.9344 12.9165 15.8494C13.0016 15.7643 13.11 15.7063 13.2281 15.6829C13.3461 15.6594 13.4685 15.6714 13.5797 15.7175C13.6908 15.7635 13.7859 15.8415 13.8527 15.9415C13.9196 16.0416 13.9553 16.1592 13.9553 16.2795C13.9551 16.4408 13.8909 16.5955 13.7769 16.7095C13.6628 16.8236 13.5081 16.8877 13.3468 16.8879ZM15.7808 13.8461C15.6604 13.8461 15.5428 13.8104 15.4427 13.7435C15.3427 13.6767 15.2647 13.5817 15.2186 13.4705C15.1726 13.3593 15.1605 13.237 15.184 13.119C15.2075 13.001 15.2654 12.8926 15.3505 12.8075C15.4356 12.7224 15.544 12.6645 15.6621 12.641C15.7801 12.6175 15.9025 12.6296 16.0137 12.6756C16.1248 12.7217 16.2199 12.7996 16.2867 12.8997C16.3536 12.9997 16.3893 13.1174 16.3893 13.2377C16.3891 13.399 16.3249 13.5536 16.2109 13.6677C16.0968 13.7817 15.9421 13.8459 15.7808 13.8461Z" fill="#142251"/>
</svg>
