<svg width="25" height="25" viewBox="0 0 25 25" fill="none" xmlns="http://www.w3.org/2000/svg">
<circle cx="12.5" cy="12.5" r="12.5" fill="#213887"/>
<path d="M20.1063 14.4552V10.5449C20.3104 10.493 20.5015 10.3992 20.6674 10.2694C20.8333 10.1397 20.9704 9.97681 21.0699 9.79121C21.1694 9.6056 21.2292 9.40132 21.2455 9.19136C21.2617 8.9814 21.2341 8.77036 21.1643 8.57166C21.0945 8.37296 20.9841 8.19096 20.8402 8.03724C20.6962 7.88352 20.5218 7.76144 20.3281 7.67878C20.1344 7.59612 19.9255 7.55468 19.7149 7.5571C19.5043 7.55951 19.2965 7.60574 19.1047 7.69283L17.8968 6.18335C18.0955 5.92235 18.2037 5.60364 18.2047 5.27562C18.2055 4.90573 18.0712 4.54828 17.8269 4.27044C17.5827 3.99261 17.2454 3.81352 16.8783 3.76682C16.5113 3.72013 16.1399 3.80904 15.8338 4.01686C15.5278 4.22467 15.3081 4.53709 15.2162 4.89539H9.78386C9.72876 4.67739 9.62588 4.47436 9.48266 4.301C9.33945 4.12763 9.15948 3.98826 8.95578 3.89297C8.75207 3.79768 8.52973 3.74885 8.30484 3.75002C8.07994 3.75119 7.85812 3.80232 7.65541 3.89973C7.45271 3.99713 7.2742 4.13836 7.1328 4.3132C6.99139 4.48805 6.89063 4.69213 6.8378 4.91069C6.78497 5.12925 6.78139 5.35682 6.82733 5.57693C6.87327 5.79704 6.96757 6.00419 7.10341 6.18339L5.89551 7.69291C5.7004 7.60394 5.48855 7.55761 5.27411 7.55701C4.90414 7.55623 4.54661 7.69055 4.26872 7.93475C3.99083 8.17894 3.8117 8.51619 3.76499 8.88313C3.71828 9.25006 3.80722 9.62142 4.01508 9.92742C4.22294 10.2334 4.53542 10.453 4.8938 10.5449V14.4552C4.68964 14.5071 4.49853 14.6009 4.33261 14.7306C4.1667 14.8604 4.02961 15.0232 3.93009 15.2088C3.83056 15.3944 3.77077 15.5987 3.75452 15.8087C3.73827 16.0187 3.76592 16.2297 3.83571 16.4284C3.90549 16.6271 4.01589 16.8091 4.15987 16.9628C4.30384 17.1166 4.47825 17.2386 4.672 17.3213C4.86574 17.404 5.07457 17.4454 5.28519 17.4429C5.49582 17.4405 5.70364 17.3943 5.89541 17.3071L7.10337 18.8167C6.90458 19.0777 6.79643 19.3964 6.79536 19.7244C6.79457 20.0943 6.92893 20.4518 7.17317 20.7296C7.41742 21.0074 7.75474 21.1865 8.12176 21.2332C8.48877 21.2799 8.86021 21.191 9.16627 20.9832C9.47234 20.7754 9.69195 20.463 9.78386 20.1047H15.2162C15.2713 20.3226 15.3742 20.5257 15.5174 20.699C15.6607 20.8724 15.8406 21.0117 16.0443 21.107C16.248 21.2023 16.4703 21.2511 16.6952 21.25C16.9201 21.2488 17.1419 21.1977 17.3446 21.1003C17.5473 21.0029 17.7258 20.8617 17.8672 20.6869C18.0087 20.512 18.1094 20.308 18.1623 20.0894C18.2151 19.8709 18.2187 19.6433 18.1728 19.4232C18.1269 19.2031 18.0326 18.9959 17.8968 18.8167L19.1047 17.3073C19.2964 17.3939 19.5041 17.4397 19.7144 17.4419C19.9248 17.444 20.1333 17.4024 20.3267 17.3197C20.5201 17.2369 20.6942 17.1149 20.838 16.9613C20.9817 16.8077 21.0919 16.6259 21.1616 16.4274C21.2313 16.229 21.2589 16.0182 21.2428 15.8085C21.2266 15.5988 21.1671 15.3947 21.0678 15.2092C20.9686 15.0238 20.8319 14.861 20.6663 14.7312C20.5008 14.6013 20.3101 14.5074 20.1063 14.4552ZM16.6835 18.2035C16.4691 18.2041 16.2574 18.2503 16.0623 18.3392L14.8545 16.8296C15.0454 16.5791 15.1529 16.2749 15.1617 15.96C15.1704 15.6451 15.0801 15.3353 14.9033 15.0745L16.6834 13.0723L18.4636 15.0747C18.2869 15.3355 18.1965 15.6452 18.2053 15.9601C18.2141 16.275 18.3216 16.5792 18.5126 16.8297L17.3046 18.3392C17.1096 18.2504 16.8978 18.2041 16.6835 18.2035ZM7.69533 18.3394L6.48735 16.8298C6.67843 16.5793 6.78596 16.2751 6.79478 15.9602C6.80359 15.6453 6.71323 15.3355 6.53647 15.0747L8.31665 13.0725L10.0967 15.0747C9.91998 15.3355 9.82963 15.6452 9.83844 15.9602C9.84726 16.2751 9.9548 16.5793 10.1459 16.8298L8.93796 18.3394C8.74307 18.2499 8.53113 18.2035 8.31665 18.2035C8.10217 18.2035 7.89023 18.2498 7.69533 18.3394ZM5.96366 10.4259L7.80771 12.5001L5.96363 14.5741C5.86526 14.5232 5.76156 14.4833 5.65442 14.4552V10.5449C5.76157 10.5167 5.86528 10.4769 5.96366 10.4259ZM8.31661 6.79655C8.53105 6.79595 8.74289 6.74962 8.938 6.66065L10.1459 8.17017C9.95481 8.42071 9.84726 8.72494 9.83844 9.03989C9.82963 9.35484 9.91999 9.66461 10.0968 9.92544L8.31665 11.9276L6.5365 9.92532C6.71324 9.66452 6.80359 9.3548 6.79478 9.0399C6.78597 8.72499 6.67845 8.4208 6.4874 8.17029L7.69537 6.66073C7.89043 6.74965 8.10223 6.79596 8.31661 6.79655ZM17.3046 6.66084L18.5126 8.17036C18.3216 8.42092 18.2141 8.72513 18.2053 9.04004C18.1965 9.35495 18.2869 9.66467 18.4637 9.92547L16.6834 11.9278L14.9033 9.92547C15.0801 9.66467 15.1704 9.35495 15.1617 9.04004C15.1529 8.72513 15.0454 8.42092 14.8544 8.17036L16.0622 6.66073C16.2571 6.7502 16.469 6.79653 16.6834 6.79655C16.8978 6.79657 17.1097 6.75028 17.3046 6.66084ZM11.3591 9.8384C11.2087 9.8384 11.0616 9.7938 10.9365 9.71024C10.8114 9.62668 10.714 9.50791 10.6564 9.36895C10.5988 9.23 10.5838 9.07709 10.6131 8.92958C10.6424 8.78206 10.7149 8.64656 10.8213 8.54021C10.9276 8.43386 11.0632 8.36143 11.2107 8.33209C11.3583 8.30274 11.5112 8.3178 11.6502 8.37536C11.7892 8.43292 11.908 8.53039 11.9915 8.65545C12.0751 8.7805 12.1197 8.92753 12.1197 9.07794C12.1195 9.27956 12.0393 9.47287 11.8967 9.61544C11.7541 9.75802 11.5608 9.8382 11.3591 9.8384ZM10.6697 10.426C10.768 10.4769 10.8717 10.5168 10.9788 10.5449V14.4552C10.8717 14.4833 10.768 14.5232 10.6696 14.5741L8.82562 12.5001L10.6697 10.426ZM10.5985 15.9221C10.5985 15.7717 10.6431 15.6247 10.7267 15.4996C10.8103 15.3746 10.929 15.2771 11.068 15.2195C11.207 15.162 11.36 15.1469 11.5075 15.1763C11.655 15.2056 11.7906 15.278 11.897 15.3844C12.0033 15.4907 12.0758 15.6262 12.1051 15.7738C12.1345 15.9213 12.1194 16.0742 12.0618 16.2131C12.0043 16.3521 11.9068 16.4709 11.7817 16.5544C11.6566 16.638 11.5095 16.6826 11.3591 16.6826C11.1574 16.6824 10.9641 16.6022 10.8215 16.4596C10.6789 16.317 10.5987 16.1237 10.5985 15.9221ZM11.7394 14.4552V10.5449C12.0347 10.4679 12.2998 10.3035 12.5 10.0732C12.7003 10.3035 12.9654 10.4679 13.2607 10.5449V14.4552C12.9654 14.5322 12.7003 14.6966 12.5 14.9268C12.2998 14.6966 12.0347 14.5322 11.7394 14.4552ZM14.4016 9.07794C14.4016 9.22834 14.357 9.37537 14.2734 9.50043C14.1898 9.62549 14.0711 9.72296 13.9321 9.78051C13.7931 9.83807 13.6401 9.85313 13.4926 9.82379C13.345 9.79445 13.2095 9.72202 13.1031 9.61567C12.9968 9.50931 12.9243 9.37381 12.895 9.2263C12.8656 9.07878 12.8807 8.92588 12.9383 8.78692C12.9958 8.64796 13.0933 8.5292 13.2184 8.44564C13.3435 8.36207 13.4905 8.31747 13.641 8.31747C13.8426 8.31771 14.036 8.3979 14.1786 8.54047C14.3212 8.68303 14.4014 8.87632 14.4016 9.07794ZM13.641 15.1616C13.7914 15.1616 13.9385 15.2062 14.0636 15.2898C14.1887 15.3734 14.2861 15.4921 14.3437 15.6311C14.4013 15.7701 14.4163 15.923 14.387 16.0705C14.3576 16.218 14.2852 16.3535 14.1788 16.4598C14.0725 16.5662 13.9369 16.6386 13.7894 16.668C13.6418 16.6973 13.4889 16.6822 13.3499 16.6247C13.2109 16.5671 13.0921 16.4697 13.0085 16.3446C12.925 16.2195 12.8804 16.0725 12.8804 15.9221C12.8806 15.7205 12.9608 15.5272 13.1034 15.3846C13.246 15.2421 13.4393 15.1619 13.641 15.1616ZM14.3306 14.5742C14.2322 14.5232 14.1285 14.4833 14.0213 14.4552V10.5449C14.1285 10.5168 14.2323 10.4768 14.3307 10.4259L16.1747 12.5001L14.3306 14.5742ZM15.4701 6.1832L14.2622 7.69283C13.9661 7.55728 13.6338 7.522 13.3158 7.59235C12.9977 7.6627 12.7114 7.83483 12.5 8.08264C12.2887 7.83483 12.0023 7.6627 11.6843 7.59235C11.3663 7.522 11.034 7.55728 10.7379 7.69283L9.52988 6.18327C9.64816 6.02572 9.73444 5.84655 9.78386 5.65585H15.2162C15.2656 5.84651 15.3518 6.02566 15.4701 6.1832ZM9.52988 18.8168L10.7378 17.3071C11.0339 17.4427 11.3662 17.4781 11.6843 17.4077C12.0023 17.3374 12.2887 17.1652 12.5 16.9174C12.7114 17.1652 12.9978 17.3373 13.3158 17.4077C13.6338 17.478 13.9661 17.4428 14.2623 17.3072L15.4701 18.8168C15.3519 18.9743 15.2656 19.1535 15.2162 19.3442H9.78386C9.73444 19.1535 9.64816 18.9743 9.52988 18.8168ZM19.0362 14.5742L17.1922 12.5001L19.0363 10.4259C19.1347 10.4768 19.2385 10.5168 19.3457 10.5449V14.4552C19.2384 14.4833 19.1347 14.5232 19.0362 14.5742ZM20.4866 9.07794C20.4866 9.22834 20.442 9.37537 20.3584 9.50043C20.2748 9.62549 20.1561 9.72296 20.0171 9.78051C19.8781 9.83807 19.7251 9.85313 19.5776 9.82379C19.4301 9.79445 19.2945 9.72202 19.1881 9.61567C19.0818 9.50931 19.0093 9.37381 18.98 9.2263C18.9506 9.07878 18.9657 8.92588 19.0233 8.78692C19.0808 8.64796 19.1783 8.5292 19.3034 8.44564C19.4285 8.36207 19.5756 8.31747 19.726 8.31747C19.9276 8.31771 20.121 8.3979 20.2636 8.54047C20.4062 8.68303 20.4864 8.87632 20.4866 9.07794ZM16.6835 4.51516C16.8339 4.51516 16.981 4.55976 17.1061 4.64332C17.2312 4.72688 17.3286 4.84565 17.3862 4.9846C17.4438 5.12356 17.4588 5.27646 17.4295 5.42398C17.4001 5.57149 17.3277 5.707 17.2213 5.81335C17.115 5.9197 16.9794 5.99213 16.8319 6.02147C16.6843 6.05081 16.5314 6.03575 16.3924 5.9782C16.2534 5.92064 16.1346 5.82317 16.0511 5.69811C15.9675 5.57305 15.9229 5.42603 15.9229 5.27562C15.9231 5.074 16.0033 4.88071 16.1459 4.73815C16.2885 4.59559 16.4818 4.51539 16.6835 4.51516ZM8.31661 4.51516C8.46705 4.51516 8.61411 4.55976 8.73919 4.64332C8.86427 4.72688 8.96177 4.84565 9.01934 4.9846C9.07691 5.12356 9.09197 5.27646 9.06262 5.42398C9.03327 5.57149 8.96083 5.707 8.85445 5.81335C8.74808 5.9197 8.61255 5.99213 8.465 6.02147C8.31745 6.05081 8.16452 6.03575 8.02553 5.9782C7.88655 5.92064 7.76775 5.82317 7.68417 5.69811C7.60059 5.57305 7.55598 5.42603 7.55598 5.27562C7.55619 5.07399 7.63639 4.88068 7.77899 4.73811C7.92159 4.59554 8.11494 4.51536 8.31661 4.51516ZM4.51348 9.07794C4.51348 8.92753 4.55809 8.7805 4.64167 8.65545C4.72525 8.53039 4.84404 8.43292 4.98303 8.37536C5.12202 8.3178 5.27495 8.30274 5.4225 8.33209C5.57005 8.36143 5.70558 8.43386 5.81195 8.54021C5.91833 8.64656 5.99077 8.78206 6.02012 8.92958C6.04947 9.07709 6.03441 9.23 5.97684 9.36895C5.91927 9.50791 5.82177 9.62668 5.69669 9.71024C5.57161 9.7938 5.42455 9.8384 5.27411 9.8384C5.07244 9.8382 4.87909 9.75802 4.73649 9.61544C4.59389 9.47287 4.51369 9.27956 4.51348 9.07794ZM4.51348 15.9221C4.51348 15.7717 4.55809 15.6247 4.64167 15.4996C4.72525 15.3746 4.84404 15.2771 4.98303 15.2195C5.12202 15.162 5.27495 15.1469 5.4225 15.1763C5.57005 15.2056 5.70558 15.278 5.81195 15.3844C5.91833 15.4907 5.99077 15.6262 6.02012 15.7738C6.04947 15.9213 6.03441 16.0742 5.97684 16.2131C5.91927 16.3521 5.82177 16.4709 5.69669 16.5544C5.57161 16.638 5.42455 16.6826 5.27411 16.6826C5.07244 16.6824 4.87909 16.6022 4.73649 16.4596C4.59389 16.317 4.51369 16.1237 4.51348 15.9221ZM8.31661 20.4849C8.16617 20.4849 8.01911 20.4403 7.89403 20.3567C7.76895 20.2732 7.67145 20.1544 7.61388 20.0154C7.55631 19.8765 7.54125 19.7236 7.5706 19.5761C7.59995 19.4286 7.67239 19.2931 7.77877 19.1867C7.88514 19.0803 8.02067 19.0079 8.16822 18.9786C8.31577 18.9492 8.4687 18.9643 8.60769 19.0219C8.74667 19.0794 8.86547 19.1769 8.94905 19.3019C9.03263 19.427 9.07724 19.574 9.07724 19.7244C9.07703 19.9261 8.99683 20.1194 8.85423 20.2619C8.71163 20.4045 8.51828 20.4847 8.31661 20.4849ZM16.6835 20.4849C16.5331 20.4849 16.386 20.4403 16.2609 20.3567C16.1358 20.2732 16.0383 20.1544 15.9808 20.0154C15.9232 19.8765 15.9081 19.7236 15.9375 19.5761C15.9668 19.4286 16.0393 19.2931 16.1456 19.1867C16.252 19.0803 16.3875 19.0079 16.5351 18.9786C16.6826 18.9492 16.8356 18.9643 16.9746 19.0219C17.1136 19.0794 17.2323 19.1769 17.3159 19.3019C17.3995 19.427 17.4441 19.574 17.4441 19.7244C17.4439 19.926 17.3637 20.1193 17.2211 20.2619C17.0785 20.4045 16.8851 20.4847 16.6835 20.4849ZM19.726 16.6826C19.5756 16.6826 19.4285 16.638 19.3034 16.5544C19.1783 16.4709 19.0808 16.3521 19.0233 16.2131C18.9657 16.0742 18.9506 15.9213 18.98 15.7738C19.0093 15.6262 19.0818 15.4907 19.1881 15.3844C19.2945 15.278 19.4301 15.2056 19.5776 15.1763C19.7251 15.1469 19.8781 15.162 20.0171 15.2195C20.1561 15.2771 20.2748 15.3746 20.3584 15.4996C20.442 15.6247 20.4866 15.7717 20.4866 15.9221C20.4864 16.1237 20.4062 16.317 20.2636 16.4596C20.121 16.6021 19.9276 16.6823 19.726 16.6826Z" fill="white"/>
</svg>
