<svg width="12" height="13" viewBox="0 0 12 13" fill="none" xmlns="http://www.w3.org/2000/svg">
<g clip-path="url(#clip0_6503_156)">
<path d="M6 12.5C9.31371 12.5 12 9.81371 12 6.5C12 3.18629 9.31371 0.5 6 0.5C2.68629 0.5 0 3.18629 0 6.5C0 9.81371 2.68629 12.5 6 12.5Z" fill="#213887"/>
<path fill-rule="evenodd" clip-rule="evenodd" d="M2.71601 6.43672C4.46513 5.67466 5.63149 5.17226 6.21507 4.92953C7.88134 4.23647 8.22757 4.11608 8.45324 4.1121C8.50288 4.11123 8.61386 4.12353 8.68574 4.18186C8.74644 4.23111 8.76315 4.29765 8.77114 4.34435C8.77913 4.39105 8.78908 4.49743 8.78117 4.58055C8.69087 5.52929 8.30017 7.83163 8.1014 8.89424C8.01729 9.34387 7.85168 9.49462 7.69135 9.50938C7.34292 9.54144 7.07834 9.27911 6.74087 9.05789C6.21279 8.71173 5.91446 8.49624 5.40187 8.15846C4.80948 7.76808 5.1935 7.55352 5.5311 7.20288C5.61945 7.11111 7.15465 5.71474 7.18436 5.58806C7.18808 5.57222 7.19153 5.51317 7.15644 5.48198C7.12136 5.4508 7.06958 5.46146 7.03222 5.46994C6.97925 5.48197 6.13564 6.03956 4.50138 7.14273C4.26192 7.30716 4.04503 7.38727 3.8507 7.38308C3.63647 7.37845 3.22438 7.26195 2.91803 7.16236C2.54228 7.04022 2.24364 6.97565 2.26964 6.76821C2.28319 6.66017 2.43198 6.54967 2.71601 6.43672Z" fill="white"/>
</g>
<defs>
<clipPath id="clip0_6503_156">
<rect width="12" height="12" fill="white" transform="translate(0 0.5)"/>
</clipPath>
</defs>
</svg>
