<svg width="335" height="150" viewBox="0 0 335 150" fill="none" xmlns="http://www.w3.org/2000/svg">
<rect width="335" height="141.044" rx="10" fill="#F3F6F9"/>
<path opacity="0.5" d="M197.325 76.0618C199.883 85.8217 193.414 96.8619 180.489 106.839C167.604 116.786 148.46 125.541 126.11 130.719C103.759 135.898 82.4815 136.508 66.1566 133.329C49.7816 130.14 38.5982 123.19 36.0406 113.43C33.4831 103.67 39.9521 92.6301 52.8767 82.6527C65.762 72.7058 84.9058 63.9512 107.256 58.7728C129.607 53.5944 150.885 52.9836 167.209 56.1628C183.584 59.3516 194.768 66.302 197.325 76.0618Z" stroke="#989EB1"/>
<path d="M36.0148 12.0322C36.6948 12.0322 37.2348 12.0962 37.6348 12.2242C38.0348 12.3442 38.3228 12.5602 38.4988 12.8722C38.6748 13.1842 38.7628 13.6242 38.7628 14.1922C38.7628 14.7842 38.6548 15.2362 38.4388 15.5482C38.2228 15.8602 37.8668 16.0402 37.3708 16.0882V16.1362C37.9868 16.1922 38.4108 16.4082 38.6428 16.7842C38.8828 17.1602 39.0028 17.6802 39.0028 18.3442C39.0028 18.9122 38.9148 19.3522 38.7388 19.6642C38.5628 19.9762 38.2828 20.1962 37.8988 20.3242C37.5148 20.4442 37.0068 20.5042 36.3748 20.5042C35.9828 20.5042 35.6188 20.4962 35.2828 20.4802C34.9468 20.4642 34.6308 20.4362 34.3348 20.3962C34.0388 20.3482 33.7508 20.2882 33.4708 20.2162L33.5668 19.3642C33.9108 19.4042 34.3028 19.4442 34.7428 19.4842C35.1908 19.5162 35.6668 19.5322 36.1708 19.5322C36.5788 19.5322 36.8948 19.4962 37.1188 19.4242C37.3508 19.3522 37.5188 19.2162 37.6228 19.0162C37.7268 18.8082 37.7788 18.5122 37.7788 18.1282C37.7788 17.7282 37.7268 17.4162 37.6228 17.1922C37.5188 16.9602 37.3428 16.8002 37.0948 16.7122C36.8468 16.6162 36.5148 16.5682 36.0988 16.5682H34.6588V15.6682H36.0988C36.4668 15.6682 36.7548 15.6322 36.9628 15.5602C37.1788 15.4802 37.3308 15.3442 37.4188 15.1522C37.5148 14.9602 37.5628 14.6882 37.5628 14.3362C37.5628 13.9682 37.5108 13.6882 37.4068 13.4962C37.3108 13.3042 37.1428 13.1722 36.9028 13.1002C36.6708 13.0282 36.3508 12.9922 35.9428 12.9922C35.4868 12.9922 35.0788 13.0082 34.7188 13.0402C34.3588 13.0722 34.0388 13.1002 33.7588 13.1242L33.6628 12.2362C34.0388 12.1642 34.4068 12.1122 34.7668 12.0802C35.1268 12.0482 35.5428 12.0322 36.0148 12.0322ZM42.9476 14.4082C43.3956 14.4082 43.7716 14.4682 44.0756 14.5882C44.3796 14.7002 44.6076 14.8962 44.7596 15.1762C44.9196 15.4562 44.9996 15.8402 44.9996 16.3282V20.4082H44.0876L43.9076 19.1362L43.8476 18.9922V16.3282C43.8396 15.9842 43.7556 15.7362 43.5956 15.5842C43.4436 15.4322 43.1436 15.3562 42.6956 15.3562C42.3836 15.3562 41.9956 15.3722 41.5316 15.4042C41.0756 15.4362 40.6236 15.4682 40.1756 15.5002L40.0676 14.6722C40.3396 14.6242 40.6436 14.5802 40.9796 14.5402C41.3156 14.5002 41.6556 14.4682 41.9996 14.4442C42.3436 14.4202 42.6596 14.4082 42.9476 14.4082ZM44.4716 16.7962L44.4596 17.6122L41.7116 17.6242C41.4396 17.6322 41.2476 17.7042 41.1356 17.8402C41.0236 17.9682 40.9676 18.1482 40.9676 18.3802V18.7402C40.9676 19.0282 41.0396 19.2402 41.1836 19.3762C41.3276 19.5042 41.5476 19.5682 41.8436 19.5682C42.0676 19.5682 42.3156 19.5282 42.5876 19.4482C42.8676 19.3602 43.1476 19.2322 43.4276 19.0642C43.7076 18.8882 43.9596 18.6682 44.1836 18.4042V19.1602C44.1116 19.2722 43.9956 19.4082 43.8356 19.5682C43.6756 19.7202 43.4796 19.8682 43.2476 20.0122C43.0236 20.1562 42.7716 20.2762 42.4916 20.3722C42.2116 20.4682 41.9076 20.5162 41.5796 20.5162C41.2276 20.5162 40.9156 20.4562 40.6436 20.3362C40.3796 20.2082 40.1716 20.0242 40.0196 19.7842C39.8756 19.5362 39.8036 19.2362 39.8036 18.8842V18.2482C39.8036 17.7922 39.9476 17.4362 40.2356 17.1802C40.5316 16.9242 40.9396 16.7962 41.4596 16.7962H44.4716ZM51.4276 14.5522V20.4082H50.2876V14.5522H51.4276ZM47.4316 14.5522V20.4082H46.3036V14.5522H47.4316ZM50.3956 14.5522L50.3836 15.4522H47.3716V14.5522H50.3956ZM56.2168 14.4082C56.9448 14.4082 57.4648 14.6722 57.7768 15.2002C58.0888 15.7282 58.2448 16.5002 58.2448 17.5162C58.2448 18.2762 58.1648 18.8802 58.0048 19.3282C57.8448 19.7682 57.6008 20.0842 57.2728 20.2762C56.9448 20.4602 56.5328 20.5522 56.0368 20.5522C55.6448 20.5522 55.2608 20.5002 54.8848 20.3962C54.5088 20.2842 54.1528 20.1162 53.8168 19.8922L53.8888 19.2442C54.2408 19.3482 54.5528 19.4322 54.8248 19.4962C55.0968 19.5602 55.3888 19.5922 55.7008 19.5922C56.0288 19.5922 56.2888 19.5362 56.4808 19.4242C56.6808 19.3122 56.8248 19.1042 56.9128 18.8002C57.0008 18.4962 57.0448 18.0682 57.0448 17.5162C57.0448 16.9722 57.0048 16.5482 56.9248 16.2442C56.8448 15.9322 56.7168 15.7122 56.5408 15.5842C56.3648 15.4482 56.1248 15.3802 55.8208 15.3802C55.5168 15.3802 55.2168 15.4522 54.9208 15.5962C54.6248 15.7322 54.2848 15.9482 53.9008 16.2442L53.7688 15.5242C53.9688 15.3002 54.2008 15.1042 54.4648 14.9362C54.7368 14.7682 55.0248 14.6402 55.3288 14.5522C55.6328 14.4562 55.9288 14.4082 56.2168 14.4082ZM53.7208 14.5522L53.8528 15.7402L53.9368 15.8962V19.6642L53.8768 19.8082C53.9008 20.0322 53.9168 20.2522 53.9248 20.4682C53.9408 20.6842 53.9448 20.9122 53.9368 21.1522V22.7962H52.7848V14.5522H53.7208ZM61.8798 14.4082C62.5678 14.4082 63.1158 14.5082 63.5238 14.7082C63.9318 14.9082 64.2278 15.2362 64.4118 15.6922C64.5958 16.1402 64.6878 16.7362 64.6878 17.4802C64.6878 18.2322 64.5958 18.8362 64.4118 19.2922C64.2278 19.7402 63.9318 20.0642 63.5238 20.2642C63.1158 20.4642 62.5678 20.5642 61.8798 20.5642C61.1918 20.5642 60.6398 20.4642 60.2237 20.2642C59.8158 20.0642 59.5197 19.7402 59.3357 19.2922C59.1517 18.8362 59.0597 18.2322 59.0597 17.4802C59.0597 16.7362 59.1517 16.1402 59.3357 15.6922C59.5197 15.2362 59.8158 14.9082 60.2237 14.7082C60.6398 14.5082 61.1918 14.4082 61.8798 14.4082ZM61.8798 15.3442C61.4798 15.3442 61.1597 15.4082 60.9197 15.5362C60.6877 15.6642 60.5197 15.8842 60.4158 16.1962C60.3198 16.5002 60.2718 16.9282 60.2718 17.4802C60.2718 18.0322 60.3198 18.4642 60.4158 18.7762C60.5197 19.0882 60.6877 19.3082 60.9197 19.4362C61.1597 19.5562 61.4798 19.6162 61.8798 19.6162C62.2798 19.6162 62.5958 19.5562 62.8278 19.4362C63.0598 19.3082 63.2238 19.0882 63.3198 18.7762C63.4158 18.4642 63.4638 18.0322 63.4638 17.4802C63.4638 16.9282 63.4158 16.5002 63.3198 16.1962C63.2238 15.8842 63.0598 15.6642 62.8278 15.5362C62.5958 15.4082 62.2798 15.3442 61.8798 15.3442ZM68.3021 14.4082C68.4861 14.4082 68.6901 14.4162 68.9141 14.4322C69.1381 14.4482 69.3661 14.4762 69.5981 14.5162C69.8301 14.5562 70.0461 14.6162 70.2461 14.6962L70.1021 15.4402C69.8221 15.4162 69.5341 15.4002 69.2381 15.3922C68.9501 15.3762 68.7021 15.3682 68.4941 15.3682C68.0541 15.3682 67.7021 15.4322 67.4381 15.5602C67.1741 15.6802 66.9821 15.8922 66.8621 16.1962C66.7501 16.5002 66.6941 16.9242 66.6941 17.4682C66.6941 18.0122 66.7501 18.4402 66.8621 18.7522C66.9821 19.0642 67.1741 19.2802 67.4381 19.4002C67.7021 19.5202 68.0541 19.5802 68.4941 19.5802C68.6141 19.5802 68.7701 19.5762 68.9621 19.5682C69.1621 19.5602 69.3741 19.5482 69.5981 19.5322C69.8221 19.5162 70.0341 19.4922 70.2341 19.4602L70.3421 20.2282C70.0541 20.3402 69.7301 20.4202 69.3701 20.4682C69.0101 20.5242 68.6501 20.5522 68.2901 20.5522C67.6101 20.5522 67.0621 20.4522 66.6461 20.2522C66.2381 20.0522 65.9421 19.7282 65.7581 19.2802C65.5741 18.8322 65.4821 18.2282 65.4821 17.4682C65.4821 16.7162 65.5741 16.1162 65.7581 15.6682C65.9421 15.2202 66.2381 14.9002 66.6461 14.7082C67.0621 14.5082 67.6141 14.4082 68.3021 14.4082Z" fill="#142251"/>
<path d="M21.2986 11.022C20.8552 10.5506 20.0545 10.5216 19.5207 11.0417L14.2949 16.1334C14.1598 16.2651 14.1598 16.4328 14.2949 16.5645C14.4301 16.6962 14.6022 16.6962 14.7373 16.5645L19.0599 12.3528C19.3119 12.1073 19.7204 12.1073 19.9723 12.3528C20.2243 12.5983 20.2243 12.9963 19.9723 13.2418L15.6497 17.4535C15.0107 18.0761 14.0216 18.0761 13.3825 17.4535C12.7435 16.8308 12.7435 15.8671 13.3825 15.2444L18.6083 10.1527C19.6196 9.16734 21.2631 9.13527 22.2402 10.1623C23.2417 11.1482 23.2712 12.7417 22.2212 13.6908L16.1014 19.6536C14.6881 21.0306 12.4732 21.0306 11.0599 19.6536C9.64669 18.2766 9.64669 16.1185 11.0599 14.7415L16.2857 9.64981C16.5377 9.40433 16.9462 9.40433 17.1981 9.64981C17.4501 9.8953 17.4501 10.2933 17.1981 10.5388L11.9723 15.6305C11.063 16.5165 11.063 17.8786 11.9723 18.7646C12.8817 19.6506 14.2796 19.6506 15.189 18.7646L21.318 12.7928C21.3246 12.7864 21.3313 12.7801 21.3382 12.774C21.822 12.3419 21.8518 11.5618 21.318 11.0417C21.3114 11.0352 21.3049 11.0287 21.2986 11.022Z" fill="#142251"/>
<path opacity="0.1" d="M0 31.0295L335 31.0296" stroke="#142251"/>
<path d="M308.293 126.551C307.902 126.184 307.902 125.588 308.293 125.221L318.192 115.913C318.583 115.545 319.216 115.545 319.607 115.913C319.997 116.28 319.997 116.875 319.607 117.242L309.707 126.551C309.317 126.918 308.683 126.918 308.293 126.551ZM313.243 128.545C312.852 128.178 312.852 127.583 313.243 127.216L320.314 120.567C320.704 120.2 321.337 120.2 321.728 120.567C322.118 120.934 322.118 121.529 321.728 121.897L314.657 128.545C314.266 128.913 313.633 128.913 313.243 128.545ZM318.192 130.54C317.802 130.173 317.802 129.578 318.192 129.21L322.435 125.221C322.826 124.854 323.459 124.854 323.849 125.221C324.24 125.588 324.24 126.184 323.849 126.551L319.607 130.54C319.216 130.907 318.583 130.907 318.192 130.54Z" fill="#142251" fill-opacity="0.44"/>
<path d="M316.188 11.4605C316.439 11.2244 316.846 11.2244 317.097 11.4605L320.5 14.6599L323.903 11.4605C324.154 11.2244 324.561 11.2244 324.812 11.4605C325.063 11.6966 325.063 12.0793 324.812 12.3153L321.409 15.5148L324.812 18.7142C325.063 18.9502 325.063 19.333 324.812 19.569C324.561 19.8051 324.154 19.8051 323.903 19.569L320.5 16.3696L317.097 19.569C316.846 19.8051 316.439 19.8051 316.188 19.569C315.937 19.333 315.937 18.9502 316.188 18.7142L319.591 15.5148L316.188 12.3153C315.937 12.0793 315.937 11.6966 316.188 11.4605Z" fill="#142251"/>
<path d="M281.6 9.60174C281.882 9.33653 282.34 9.33653 282.622 9.60174L284.788 11.639C285.071 11.9042 285.071 12.3342 284.788 12.5994L278.288 18.7113C278.153 18.8387 277.969 18.9102 277.778 18.9102H275.611C275.212 18.9102 274.889 18.6062 274.889 18.2311V16.1938C274.889 16.0137 274.965 15.841 275.1 15.7136L281.6 9.60174ZM276.333 16.4751V17.552H277.479L283.256 12.1192L282.111 11.0423L276.333 16.4751ZM272 12.1192C272 11.3691 272.647 10.761 273.444 10.761H277.056C277.454 10.761 277.778 11.0651 277.778 11.4401C277.778 11.8152 277.454 12.1192 277.056 12.1192H273.444V20.2684H282.111V16.8729C282.111 16.4979 282.434 16.1938 282.833 16.1938C283.232 16.1938 283.556 16.4979 283.556 16.8729V20.2684C283.556 21.0185 282.909 21.6266 282.111 21.6266H273.444C272.647 21.6266 272 21.0185 272 20.2684V12.1192Z" fill="#142251"/>
</svg>
