<svg width="100" height="114" viewBox="0 0 100 114" fill="none" xmlns="http://www.w3.org/2000/svg">
<rect x="0.5" y="0.5" width="99" height="113" rx="11.5" fill="white" stroke="#989EB1"/>
<mask id="mask0_6503_90" style="mask-type:alpha" maskUnits="userSpaceOnUse" x="5" y="6" width="90" height="85">
<rect x="5.30981" y="6.60864" width="88.938" height="83.4348" rx="12" fill="#E4E7F1"/>
</mask>
<g mask="url(#mask0_6503_90)">
</g>
<g clip-path="url(#clip0_6503_90)">
<path d="M80.2907 56.2546L80.3127 41.3223C81.1248 41.1252 81.8853 40.768 82.5459 40.2734C83.2064 39.7788 83.7524 39.1576 84.1492 38.4494C84.546 37.7412 84.785 36.9614 84.8507 36.1597C84.9165 35.358 84.8078 34.552 84.5314 33.7928C84.255 33.0337 83.817 32.3381 83.2453 31.7503C82.6736 31.1625 81.9807 30.6954 81.2108 30.3786C80.4408 30.0619 79.6105 29.9026 78.7729 29.9107C77.9353 29.9188 77.1085 30.0942 76.3454 30.4257L71.55 24.6549C72.3418 23.6593 72.7736 22.4428 72.7798 21.1902C72.785 19.7777 72.2526 18.412 71.2828 17.3497C70.313 16.2874 68.9725 15.6017 67.5132 15.4214C66.0538 15.2411 64.5761 15.5786 63.3577 16.3706C62.1394 17.1625 61.2642 18.3543 60.8967 19.7221L39.2921 19.6928C39.0742 18.86 38.6662 18.0842 38.0976 17.4214C37.5291 16.7586 36.8141 16.2254 36.0045 15.8604C35.1949 15.4954 34.3109 15.3078 33.4165 15.311C32.5221 15.3143 31.6396 15.5083 30.8329 15.8792C30.0263 16.25 29.3155 16.7884 28.7522 17.4553C28.1888 18.1223 27.787 18.9011 27.5756 19.7354C27.3643 20.5697 27.3488 21.4387 27.5303 22.2795C27.7117 23.1203 28.0856 23.9118 28.6248 24.5969L23.8125 30.3548C23.0371 30.014 22.1948 29.8359 21.342 29.8325C19.8706 29.8275 18.448 30.3385 17.3414 31.2695C16.2349 32.2006 15.5206 33.4875 15.3328 34.8884C15.145 36.2894 15.4966 37.708 16.3215 38.8776C17.1465 40.0473 18.388 40.8874 19.8127 41.2403L19.7907 56.1726C18.9785 56.3696 18.218 56.7268 17.5574 57.2214C16.8968 57.7159 16.3507 58.3371 15.9539 59.0454C15.557 59.7536 15.3181 60.5334 15.2523 61.3352C15.1865 62.1369 15.2952 62.943 15.5717 63.7022C15.8481 64.4613 16.2861 65.1569 16.8578 65.7447C17.4296 66.3325 18.1225 66.7996 18.8926 67.1163C19.6626 67.433 20.4929 67.5923 21.3306 67.5842C22.1682 67.576 22.995 67.4005 23.7582 67.0689L28.5537 72.84C27.7617 73.8355 27.3298 75.052 27.3236 76.3047C27.3184 77.7172 27.8508 79.0829 28.8206 80.1452C29.7904 81.2075 31.1309 81.8932 32.5902 82.0735C34.0496 82.2538 35.5273 81.9162 36.7457 81.1243C37.964 80.3324 38.8392 79.1405 39.2067 77.7728L60.8113 77.802C61.0292 78.6348 61.4372 79.4106 62.0058 80.0734C62.5744 80.7361 63.2893 81.2693 64.0989 81.6343C64.9084 81.9992 65.7924 82.1869 66.6867 82.1837C67.5811 82.1804 68.4636 81.9864 69.2702 81.6156C70.0769 81.2448 70.7876 80.7065 71.351 80.0396C71.9144 79.3727 72.3163 78.594 72.5277 77.7597C72.7391 76.9254 72.7547 76.0565 72.5733 75.2157C72.3919 74.3749 72.0182 73.5834 71.479 72.8983L76.2915 67.1405C77.0534 67.4724 77.8789 67.6486 78.7155 67.6579C79.5521 67.6671 80.3816 67.5093 81.1512 67.1944C81.9209 66.8795 82.614 66.4144 83.1864 65.8286C83.7589 65.2428 84.1982 64.5492 84.4764 63.7917C84.7547 63.0343 84.8659 62.2295 84.8029 61.4286C84.7399 60.6277 84.5041 59.8481 84.1105 59.1393C83.7169 58.4306 83.174 57.8081 82.5164 57.3115C81.8589 56.8149 81.1009 56.455 80.2907 56.2546ZM66.6572 70.55C65.8047 70.551 64.9622 70.7265 64.186 71.065L59.3908 65.2937C60.1518 64.3379 60.5808 63.1768 60.6175 61.9743C60.6541 60.7718 60.2965 59.5886 59.595 58.5917L66.6858 50.9554L73.7543 58.6114C73.0499 59.6063 72.6889 60.7886 72.7221 61.9912C72.7552 63.1937 73.181 64.3559 73.9392 65.3137L69.1266 71.0717C68.3515 70.7312 67.5096 70.5533 66.6572 70.55ZM30.9106 71.0203L26.115 65.2494C26.8763 64.2937 27.3057 63.1327 27.3425 61.9301C27.3793 60.7275 27.0217 59.5443 26.3202 58.5474L33.4112 50.911L40.4793 58.5664C39.7749 59.5614 39.4138 60.7437 39.4471 61.9464C39.4804 63.149 39.9064 64.3112 40.6649 65.2689L35.8525 71.0272C35.078 70.6842 34.2353 70.506 33.3824 70.5049C32.5294 70.5037 31.6862 70.6795 30.9106 71.0203ZM24.0682 40.7918L31.3903 48.7223L24.0448 56.6326C23.6539 56.4376 23.2417 56.2847 22.8157 56.1767L22.8377 41.2444C23.264 41.1375 23.6767 40.9858 24.0682 40.7918ZM33.4462 26.9449C34.2991 26.9438 35.1418 26.768 35.9183 26.4293L40.7136 32.2003C39.9522 33.156 39.5228 34.3171 39.486 35.5198C39.4491 36.7225 39.8068 37.9059 40.5084 38.9029L33.4176 46.5389L26.3492 38.8832C27.0536 37.8882 27.4146 36.706 27.3813 35.5034C27.3481 34.3008 26.9222 33.1387 26.1638 32.181L30.9763 26.4229C31.7516 26.7635 32.5936 26.9415 33.4462 26.9449ZM69.1922 26.4751L73.9877 32.2461C73.2267 33.2019 72.7976 34.363 72.7609 35.5655C72.7242 36.768 73.0819 37.9512 73.7834 38.9481L66.6923 46.5849L59.6239 38.9289C60.3283 37.9339 60.6895 36.7517 60.6563 35.5491C60.6232 34.3465 60.1975 33.1842 59.4393 32.2264L64.2513 26.468C65.0258 26.8107 65.8682 26.9888 66.7209 26.99C67.5737 26.9912 68.4167 26.8156 69.1922 26.4751ZM45.5292 38.5773C44.9309 38.5765 44.3463 38.4054 43.8493 38.0856C43.3523 37.7658 42.9652 37.3118 42.7371 36.7808C42.5089 36.2499 42.4498 35.6659 42.5674 35.1027C42.6849 34.5396 42.9738 34.0225 43.3974 33.617C43.8211 33.2114 44.3605 32.9356 44.9475 32.8243C45.5344 32.713 46.1426 32.7714 46.695 32.9919C47.2474 33.2125 47.7193 33.5853 48.051 34.0633C48.3827 34.5413 48.5593 35.103 48.5584 35.6774C48.5565 36.4473 48.2364 37.1851 47.6685 37.7288C47.1006 38.2724 46.3312 38.5776 45.5292 38.5773ZM42.784 40.8173C43.1748 41.0123 43.5869 41.1651 44.0127 41.2731L43.9907 56.2054C43.5645 56.3123 43.1519 56.464 42.7604 56.6579L35.4385 48.7278L42.784 40.8173ZM42.47 61.8052C42.4708 61.2308 42.6491 60.6696 42.9822 60.1925C43.3153 59.7154 43.7882 59.3438 44.3413 59.1248C44.8944 58.9057 45.5027 58.849 46.0893 58.9619C46.6759 59.0747 47.2145 59.352 47.637 59.7587C48.0595 60.1654 48.3468 60.6833 48.4627 61.2467C48.5786 61.8102 48.5178 62.394 48.2881 62.9244C48.0583 63.4547 47.67 63.9077 47.172 64.2261C46.6741 64.5446 46.089 64.7141 45.4907 64.7133C44.6887 64.7114 43.9202 64.4042 43.3539 63.859C42.7875 63.3137 42.4697 62.5751 42.47 61.8052ZM47.0157 56.2095L47.0377 41.2772C48.2124 40.9846 49.2677 40.3583 50.0653 39.4802C50.8604 40.3605 51.9138 40.9896 53.0877 41.2854L53.0657 56.2177C51.891 56.5102 50.8357 57.1366 50.0381 58.0147C49.243 57.1344 48.1896 56.5052 47.0157 56.2095ZM57.6334 35.6897C57.6326 36.264 57.4543 36.8253 57.1212 37.3024C56.7881 37.7795 56.3152 38.1511 55.7621 38.3701C55.209 38.5892 54.6007 38.6458 54.0141 38.533C53.4275 38.4201 52.8889 38.1428 52.4664 37.7361C52.0439 37.3294 51.7566 36.8116 51.6407 36.2481C51.5248 35.6846 51.5856 35.1008 51.8153 34.5705C52.0451 34.0402 52.4334 33.5872 52.9314 33.2687C53.4293 32.9503 54.0144 32.7808 54.6127 32.7816C55.4147 32.7836 56.1831 33.0909 56.7494 33.636C57.3157 34.1812 57.6336 34.9198 57.6334 35.6897ZM54.5742 58.9176C55.1725 58.9184 55.7571 59.0895 56.2541 59.4093C56.7511 59.729 57.1382 60.1831 57.3663 60.714C57.5945 61.245 57.6536 61.829 57.536 62.3921C57.4185 62.9553 57.1296 63.4723 56.706 63.8779C56.2823 64.2835 55.7429 64.5593 55.1559 64.6706C54.569 64.7818 53.9608 64.7235 53.4084 64.5029C52.856 64.2824 52.3841 63.9095 52.0524 63.4315C51.7207 62.9535 51.5441 62.3918 51.545 61.8175C51.547 61.0476 51.8671 60.3099 52.435 59.7662C53.0029 59.2226 53.7723 58.9174 54.5742 58.9176ZM57.3203 56.6778C56.9293 56.4826 56.5169 56.3297 56.0907 56.2218L56.1127 41.2895C56.5392 41.1827 56.9521 41.0308 57.3438 40.8366L64.6656 48.7674L57.3203 56.6778ZM61.8989 24.6412L57.0869 30.3996C55.9098 29.8804 54.5885 29.7439 53.3234 30.0108C52.0582 30.2777 50.9183 30.9335 50.0765 31.8787C49.2375 30.9312 48.0995 30.2724 46.8352 30.002C45.5708 29.7316 44.2491 29.8646 43.0705 30.3806L38.2749 24.6095C38.7461 24.0085 39.0903 23.3248 39.2879 22.5968L60.8924 22.6261C61.0877 23.3544 61.4296 24.039 61.8989 24.6412ZM38.2039 72.8533L43.0162 67.095C44.1933 67.6144 45.5146 67.751 46.7799 67.4841C48.0451 67.2173 49.1851 66.5614 50.0269 65.6162C50.8659 66.5636 52.004 67.2225 53.2684 67.4929C54.5328 67.7632 55.8546 67.6303 57.0332 67.1143L61.8282 72.8853C61.357 73.4863 61.0129 74.1701 60.8155 74.898L39.211 74.8688C39.0156 74.1403 38.6734 73.4556 38.2039 72.8533ZM76.0343 56.7035L68.7123 48.7729L76.0579 40.862C76.449 41.0572 76.8614 41.2102 77.2877 41.3182L77.2657 56.2505C76.8391 56.3574 76.4261 56.5093 76.0343 56.7035ZM81.8334 35.7225C81.8325 36.2968 81.6543 36.8581 81.3212 37.3352C80.9881 37.8123 80.5151 38.1839 79.9621 38.4029C79.409 38.622 78.8007 38.6786 78.2141 38.5658C77.6274 38.4529 77.0888 38.1756 76.6664 37.7689C76.2439 37.3622 75.9566 36.8444 75.8407 36.2809C75.7248 35.7174 75.7856 35.1336 76.0153 34.6033C76.245 34.073 76.6334 33.6199 77.1313 33.3015C77.6293 32.9831 78.2144 32.8136 78.8127 32.8144C79.6147 32.8164 80.3831 33.1237 80.9494 33.6688C81.5157 34.214 81.8336 34.9526 81.8334 35.7225ZM66.734 18.278C67.3323 18.2788 67.9169 18.4499 68.4139 18.7697C68.9109 19.0895 69.298 19.5435 69.5261 20.0745C69.7543 20.6054 69.8133 21.1894 69.6958 21.7526C69.5783 22.3157 69.2894 22.8328 68.8657 23.2383C68.4421 23.6439 67.9027 23.9197 67.3157 24.031C66.7288 24.1423 66.1206 24.0839 65.5682 23.8634C65.0158 23.6428 64.5439 23.27 64.2122 22.792C63.8805 22.314 63.7039 21.7523 63.7048 21.1779C63.7068 20.408 64.0269 19.6703 64.5948 19.1267C65.1627 18.583 65.932 18.2778 66.734 18.278ZM33.4591 18.2329C34.0573 18.2337 34.6419 18.4048 35.1389 18.7246C35.6359 19.0444 36.023 19.4984 36.2512 20.0294C36.4793 20.5603 36.5384 21.1443 36.4208 21.7075C36.3033 22.2706 36.0144 22.7877 35.5908 23.1932C35.1671 23.5988 34.6277 23.8746 34.0407 23.9859C33.4538 24.0972 32.8456 24.0388 32.2932 23.8183C31.7408 23.5977 31.2689 23.2249 30.9372 22.7469C30.6055 22.2689 30.4289 21.7072 30.4298 21.1328C30.4317 20.3629 30.7518 19.6251 31.3197 19.0814C31.8876 18.5378 32.657 18.2326 33.4591 18.2329ZM18.3084 35.6364C18.3093 35.062 18.4875 34.5008 18.8206 34.0237C19.1537 33.5466 19.6267 33.175 20.1798 32.956C20.7328 32.7369 21.3412 32.6802 21.9278 32.7931C22.5144 32.9059 23.053 33.1833 23.4755 33.59C23.8979 33.9967 24.1853 34.5145 24.3012 35.078C24.417 35.6415 24.3563 36.2253 24.1265 36.7556C23.8968 37.2859 23.5084 37.7389 23.0105 38.0574C22.5126 38.3758 21.9275 38.5453 21.3292 38.5445C20.5271 38.5426 19.7586 38.2354 19.1923 37.6902C18.626 37.145 18.3081 36.4063 18.3084 35.6364ZM18.27 61.7724C18.2709 61.198 18.4491 60.6368 18.7822 60.1597C19.1153 59.6826 19.5883 59.311 20.1413 59.092C20.6944 58.8729 21.3027 58.8162 21.8893 58.9291C22.476 59.0419 23.0146 59.3192 23.437 59.7259C23.8595 60.1326 24.1468 60.6505 24.2627 61.2139C24.3786 61.7774 24.3178 62.3612 24.0881 62.8916C23.8584 63.4219 23.47 63.8749 22.9721 64.1933C22.4741 64.5118 21.889 64.6813 21.2907 64.6805C20.4887 64.6786 19.7202 64.3714 19.1539 63.8262C18.5876 63.2809 18.2697 62.5423 18.27 61.7724ZM33.3694 79.2169C32.7711 79.216 32.1865 79.0449 31.6895 78.7252C31.1925 78.4054 30.8055 77.9513 30.5773 77.4204C30.3491 76.8894 30.2901 76.3055 30.4076 75.7423C30.5252 75.1791 30.814 74.6621 31.2377 74.2565C31.6613 73.851 32.2007 73.5751 32.7877 73.4639C33.3746 73.3526 33.9828 73.4109 34.5352 73.6315C35.0876 73.852 35.5595 74.2249 35.8912 74.7029C36.2229 75.1809 36.3995 75.7426 36.3986 76.317C36.3967 77.0869 36.0767 77.8247 35.5087 78.3683C34.9408 78.912 34.1714 79.2172 33.3694 79.2169ZM66.6443 79.262C66.0461 79.2611 65.4615 79.09 64.9645 78.7703C64.4675 78.4505 64.0804 77.9964 63.8522 77.4655C63.6241 76.9345 63.565 76.3506 63.6826 75.7874C63.8001 75.2242 64.089 74.7072 64.5126 74.3016C64.9363 73.8961 65.4757 73.6202 66.0627 73.509C66.6496 73.3977 67.2578 73.456 67.8102 73.6766C68.3626 73.8971 68.8345 74.27 69.1662 74.748C69.4979 75.226 69.6745 75.7877 69.6736 76.3621C69.6715 77.132 69.3515 77.8697 68.7836 78.4133C68.2157 78.9569 67.4463 79.2621 66.6443 79.262ZM78.7657 64.7584C78.1674 64.7576 77.5828 64.5864 77.0858 64.2667C76.5888 63.9469 76.2018 63.4928 75.9736 62.9619C75.7454 62.4309 75.6864 61.847 75.8039 61.2838C75.9215 60.7206 76.2103 60.2036 76.634 59.798C77.0576 59.3925 77.597 59.1166 78.184 59.0054C78.771 58.8941 79.3791 58.9524 79.9315 59.173C80.4839 59.3935 80.9558 59.7664 81.2875 60.2444C81.6192 60.7224 81.7958 61.2841 81.795 61.8585C81.7929 62.6284 81.4728 63.3661 80.9049 63.9097C80.337 64.4534 79.5677 64.7586 78.7657 64.7584Z" fill="url(#paint0_linear_6503_90)"/>
</g>
<rect x="5.80981" y="7.10864" width="87.938" height="82.4348" rx="11.5" stroke="#989EB1"/>
<defs>
<linearGradient id="paint0_linear_6503_90" x1="23.1265" y1="22.8261" x2="74.7739" y2="76.7777" gradientUnits="userSpaceOnUse">
<stop stop-color="#142251"/>
<stop offset="1" stop-color="#E4E7F1"/>
</linearGradient>
<clipPath id="clip0_6503_90">
<rect width="75.625" height="72.6" fill="white" transform="matrix(0.999999 0.00135533 -0.00147062 0.999999 12.2927 12.3962)"/>
</clipPath>
</defs>
</svg>
