<svg width="505" height="381" viewBox="0 0 505 381" fill="none" xmlns="http://www.w3.org/2000/svg">
<g filter="url(#filter0_b_0_2928)">
<g clip-path="url(#clip0_0_2928)">
<rect y="94.3918" width="454" height="293" rx="22" transform="rotate(-12 0 94.3918)" fill="#F2F3F8"/>
<g opacity="0.44">
<path d="M61.0794 103.132C62.4097 102.849 63.4927 102.75 64.3285 102.834C65.1609 102.902 65.8141 103.205 66.2882 103.742C66.7622 104.279 67.1173 105.104 67.3535 106.215C67.5997 107.373 67.5764 108.302 67.2835 109.002C66.9907 109.702 66.3691 110.203 65.4188 110.503L65.4387 110.597C66.6671 110.45 67.5864 110.696 68.1966 111.335C68.8224 111.971 69.2734 112.938 69.5495 114.237C69.7857 115.349 69.7965 116.246 69.582 116.93C69.3674 117.613 68.9111 118.16 68.2131 118.57C67.5118 118.964 66.5429 119.293 65.3066 119.556C64.5397 119.719 63.8243 119.855 63.1603 119.963C62.4963 120.071 61.8665 120.148 61.2708 120.193C60.6718 120.222 60.0834 120.224 59.5057 120.2L59.3392 118.493C60.0288 118.428 60.8123 118.344 61.6897 118.239C62.5795 118.115 63.5173 117.949 64.5033 117.739C65.3015 117.569 65.9047 117.368 66.313 117.134C66.7369 116.896 67.009 116.56 67.1293 116.126C67.2462 115.676 67.2249 115.075 67.0652 114.324C66.8989 113.541 66.6674 112.953 66.3708 112.558C66.0709 112.147 65.66 111.907 65.1383 111.838C64.6132 111.753 63.9438 111.798 63.1299 111.971L60.3129 112.569L59.9386 110.809L62.7557 110.21C63.4756 110.057 64.0241 109.867 64.401 109.639C64.7903 109.393 65.0311 109.064 65.1234 108.652C65.2314 108.236 65.2122 107.684 65.0658 106.995C64.9128 106.275 64.6947 105.749 64.4114 105.417C64.1437 105.081 63.7602 104.893 63.2607 104.852C62.7769 104.807 62.1359 104.87 61.3378 105.04C60.4457 105.229 59.6542 105.43 58.9632 105.643C58.2723 105.855 57.6579 106.043 57.1201 106.206L56.5631 104.509C57.2687 104.212 57.967 103.957 58.6579 103.745C59.3489 103.532 60.1561 103.328 61.0794 103.132ZM75.6301 104.897C76.5065 104.711 77.267 104.672 77.9116 104.78C78.5529 104.873 79.0804 105.162 79.4942 105.646C79.9237 106.127 80.2398 106.845 80.4428 107.8L82.1393 115.782L80.3552 116.161L79.4741 113.747L79.2969 113.491L78.1891 108.279C78.0304 107.609 77.763 107.159 77.3867 106.928C77.0262 106.694 76.4077 106.67 75.5313 106.856C74.9209 106.986 74.1685 107.179 73.2741 107.434C72.3953 107.687 71.5244 107.937 70.6613 108.186L70.1057 106.611C70.6179 106.404 71.1943 106.192 71.835 105.974C72.4756 105.756 73.1275 105.552 73.7905 105.362C74.4534 105.172 75.0666 105.017 75.6301 104.897ZM79.6044 108.935L79.9203 110.536L74.5494 111.703C74.0206 111.831 73.6749 112.052 73.5124 112.365C73.3465 112.662 73.3118 113.037 73.4082 113.491L73.5579 114.195C73.6777 114.759 73.9067 115.143 74.245 115.349C74.5799 115.54 75.0369 115.574 75.616 115.451C76.0542 115.358 76.5227 115.176 77.0215 114.907C77.5327 114.618 78.0273 114.251 78.5052 113.806C78.9797 113.345 79.3812 112.81 79.7097 112.201L80.024 113.679C79.9298 113.929 79.7594 114.243 79.5129 114.622C79.2631 114.986 78.9412 115.357 78.5472 115.735C78.1689 116.11 77.7258 116.45 77.218 116.754C76.7101 117.058 76.1354 117.279 75.4937 117.415C74.8051 117.561 74.1698 117.574 73.5878 117.452C73.0181 117.311 72.5347 117.038 72.1375 116.632C71.7527 116.206 71.4871 115.649 71.3407 114.961L71.0762 113.717C70.8866 112.825 71.0203 112.068 71.4773 111.448C71.9499 110.824 72.6948 110.404 73.7121 110.187L79.6044 108.935ZM92.2793 101.653L94.7143 113.109L92.4841 113.583L90.0491 102.127L92.2793 101.653ZM84.4619 103.314L86.897 114.77L84.6903 115.239L82.2552 103.783L84.4619 103.314ZM90.2604 102.082L90.6111 103.847L84.7188 105.1L84.3445 103.339L90.2604 102.082ZM101.589 99.3795C103.013 99.0767 104.14 99.377 104.97 100.28C105.8 101.183 106.426 102.629 106.848 104.616C107.164 106.103 107.259 107.318 107.132 108.261C107.002 109.188 106.656 109.908 106.094 110.42C105.529 110.916 104.762 111.268 103.791 111.474C103.024 111.637 102.251 111.695 101.473 111.648C100.691 111.585 99.9242 111.404 99.1738 111.106L99.0452 109.808C99.777 109.865 100.422 109.9 100.981 109.912C101.54 109.924 102.124 109.865 102.735 109.735C103.376 109.599 103.862 109.381 104.191 109.082C104.535 108.78 104.731 108.313 104.776 107.682C104.822 107.051 104.73 106.195 104.501 105.115C104.274 104.051 104.02 103.238 103.737 102.677C103.451 102.1 103.109 101.723 102.711 101.545C102.31 101.352 101.813 101.319 101.218 101.446C100.623 101.572 100.066 101.838 99.5471 102.242C99.0246 102.632 98.4493 103.196 97.8212 103.934L97.2636 102.581C97.5617 102.059 97.934 101.579 98.3806 101.141C98.8429 100.699 99.3531 100.329 99.9112 100.03C100.466 99.7162 101.025 99.4992 101.589 99.3795ZM96.7655 100.699L97.5177 102.968L97.7469 103.239L99.3137 110.61L99.2562 110.916C99.3963 111.345 99.5191 111.768 99.6246 112.188C99.7457 112.604 99.8483 113.048 99.9325 113.521L100.616 116.737L98.3624 117.216L94.9344 101.088L96.7655 100.699ZM112.667 97.0247C114.013 96.7386 115.127 96.7063 116.008 96.9279C116.889 97.1496 117.605 97.6681 118.154 98.4837C118.7 99.2836 119.128 100.411 119.438 101.867C119.75 103.338 119.822 104.558 119.651 105.526C119.478 106.479 119.033 107.236 118.318 107.797C117.603 108.358 116.573 108.782 115.227 109.068C113.881 109.354 112.759 109.388 111.862 109.169C110.981 108.948 110.267 108.437 109.721 107.637C109.171 106.822 108.74 105.678 108.428 104.207C108.118 102.752 108.05 101.547 108.224 100.594C108.394 99.6258 108.837 98.8611 109.552 98.3002C110.283 97.7359 111.321 97.3108 112.667 97.0247ZM113.056 98.8558C112.274 99.0221 111.674 99.2804 111.258 99.6306C110.857 99.9774 110.62 100.478 110.546 101.131C110.485 101.766 110.569 102.623 110.799 103.703C111.028 104.783 111.302 105.608 111.619 106.179C111.952 106.746 112.373 107.106 112.88 107.26C113.399 107.395 114.05 107.379 114.833 107.213C115.615 107.047 116.208 106.798 116.612 106.467C117.013 106.12 117.242 105.621 117.3 104.971C117.358 104.321 117.273 103.456 117.043 102.376C116.814 101.296 116.542 100.479 116.228 99.9237C115.91 99.3533 115.498 98.9911 114.991 98.8372C114.483 98.6832 113.839 98.6894 113.056 98.8558ZM125.231 94.3541C125.591 94.2776 125.993 94.2084 126.438 94.1466C126.883 94.0847 127.341 94.0447 127.811 94.0265C128.282 94.0083 128.729 94.0358 129.154 94.1092L129.181 95.6245C128.624 95.694 128.054 95.7825 127.471 95.8899C126.901 95.9784 126.413 96.0658 126.006 96.1523C125.145 96.3353 124.483 96.6069 124.02 96.967C123.553 97.3116 123.266 97.8061 123.157 98.4508C123.065 99.092 123.131 99.9448 123.358 101.009C123.584 102.073 123.871 102.887 124.22 103.451C124.585 104.012 125.05 104.354 125.617 104.479C126.183 104.604 126.896 104.575 127.757 104.392C127.992 104.342 128.295 104.27 128.668 104.174C129.056 104.075 129.465 103.964 129.897 103.839C130.329 103.715 130.733 103.58 131.111 103.434L131.642 104.891C131.125 105.23 130.524 105.522 129.84 105.765C129.159 106.024 128.467 106.229 127.762 106.379C126.432 106.661 125.318 106.694 124.421 106.475C123.54 106.254 122.826 105.743 122.28 104.943C121.734 104.143 121.303 103 120.987 101.513C120.674 100.042 120.604 98.8298 120.778 97.8769C120.952 96.924 121.398 96.1749 122.116 95.6296C122.847 95.0654 123.885 94.6402 125.231 94.3541Z" fill="#142251"/>
<g clip-path="url(#clip1_0_2928)">
<path d="M39.174 108.123C38.3458 107.533 37.1222 107.746 36.485 108.727L30.246 118.334C30.0847 118.582 30.1402 118.843 30.3886 119.005C30.6371 119.166 30.8981 119.111 31.0594 118.862L36.22 110.916C36.5208 110.452 37.1401 110.321 37.6033 110.622C38.0665 110.922 38.1981 111.542 37.8974 112.005L32.7368 119.951C31.9738 121.126 30.4742 121.445 29.2994 120.682C28.1245 119.919 27.8058 118.419 28.5687 117.245L34.8076 107.638C36.015 105.778 38.4961 105.199 40.3172 106.482C42.1617 107.694 42.7334 110.164 41.4555 111.979L34.1492 123.229C32.4619 125.827 29.1038 126.541 26.5057 124.854C23.9076 123.167 23.1938 119.809 24.881 117.211L31.12 107.604C31.4207 107.14 32.0401 107.009 32.5033 107.309C32.9664 107.61 33.0981 108.23 32.7973 108.693L26.5584 118.3C25.4728 119.972 25.9233 122.091 27.595 123.177C29.2667 124.262 31.3862 123.812 32.4718 122.14L39.7891 110.873C39.797 110.86 39.8051 110.848 39.8135 110.837C40.404 110.008 40.1911 108.785 39.2099 108.148C39.1977 108.14 39.1857 108.132 39.174 108.123Z" fill="#142251"/>
</g>
<path d="M414.118 28.1367C414.419 27.6735 415.038 27.5419 415.501 27.8427L421.779 31.9195L425.856 25.6418C426.156 25.1786 426.776 25.047 427.239 25.3478C427.702 25.6486 427.834 26.2679 427.533 26.7311L423.456 33.0088L429.734 37.0855C430.197 37.3863 430.329 38.0057 430.028 38.4688C429.727 38.932 429.108 39.0637 428.645 38.7629L422.367 34.6861L418.29 40.9638C417.989 41.427 417.37 41.5586 416.907 41.2578C416.444 40.957 416.312 40.3377 416.613 39.8745L420.69 33.5968L414.412 29.52C413.949 29.2192 413.817 28.5999 414.118 28.1367Z" fill="#142251"/>
<g clip-path="url(#clip2_0_2928)">
<path d="M369.684 35.5367C369.985 35.0735 370.604 34.9418 371.068 35.2426L374.626 37.5533C375.089 37.8541 375.221 38.4735 374.92 38.9366L367.988 49.6112C367.843 49.8336 367.616 49.9895 367.357 50.0447L364.423 50.6684C363.882 50.7833 363.351 50.4384 363.237 49.8982L362.613 46.9637C362.558 46.7043 362.608 46.4336 362.752 46.2112L369.684 35.5367ZM364.655 46.9531L364.985 48.5042L366.536 48.1745L372.698 38.686L370.817 37.4646L364.655 46.9531ZM357.453 41.9265C357.223 40.8461 357.913 39.784 358.993 39.5544L363.884 38.5148C364.424 38.4 364.955 38.7448 365.07 39.2851C365.185 39.8253 364.84 40.3563 364.3 40.4711L359.409 41.5107L361.904 53.2485L373.642 50.7535L372.602 45.8628C372.487 45.3226 372.832 44.7915 373.372 44.6767C373.913 44.5619 374.444 44.9067 374.558 45.447L375.598 50.3377C375.828 51.4181 375.138 52.4802 374.058 52.7098L362.32 55.2047C361.239 55.4344 360.177 54.7447 359.948 53.6643L357.453 41.9265Z" fill="#142251"/>
</g>
</g>
<path d="M463.864 269.803C463.401 269.502 463.27 268.883 463.57 268.42L471.195 256.678C471.496 256.215 472.115 256.084 472.579 256.384C473.042 256.685 473.174 257.305 472.873 257.768L465.248 269.509C464.947 269.972 464.328 270.104 463.864 269.803ZM469.147 270.849C468.684 270.548 468.552 269.929 468.853 269.466L474.299 261.079C474.6 260.616 475.22 260.484 475.683 260.785C476.146 261.086 476.278 261.705 475.977 262.168L470.53 270.555C470.23 271.018 469.61 271.15 469.147 270.849ZM474.43 271.895C473.967 271.594 473.835 270.975 474.136 270.512L477.404 265.48C477.704 265.016 478.324 264.885 478.787 265.186C479.25 265.486 479.382 266.106 479.081 266.569L475.813 271.601C475.512 272.064 474.893 272.196 474.43 271.895Z" fill="#142251" fill-opacity="0.44"/>
<rect x="11.6426" y="149.168" width="454" height="1" transform="rotate(-12 11.6426 149.168)" fill="#E4E7F1"/>
<path d="M261.914 194.328C267.681 206.236 262.852 222.048 250.046 238.082C237.265 254.084 216.646 270.154 191.21 282.474C165.774 294.793 140.381 301.007 119.902 301.114C99.3821 301.221 83.9814 295.207 78.2142 283.299C72.447 271.391 77.2761 255.579 90.0824 239.545C102.863 223.543 123.482 207.473 148.918 195.153C174.354 182.834 199.747 176.62 220.226 176.513C240.746 176.406 256.147 182.42 261.914 194.328Z" stroke="#C3C7CF"/>
</g>
</g>
<defs>
<filter id="filter0_b_0_2928" x="-40" y="-40" width="584.997" height="460.989" filterUnits="userSpaceOnUse" color-interpolation-filters="sRGB">
<feFlood flood-opacity="0" result="BackgroundImageFix"/>
<feGaussianBlur in="BackgroundImageFix" stdDeviation="20"/>
<feComposite in2="SourceAlpha" operator="in" result="effect1_backgroundBlur_0_2928"/>
<feBlend mode="normal" in="SourceGraphic" in2="effect1_backgroundBlur_0_2928" result="shape"/>
</filter>
<clipPath id="clip0_0_2928">
<rect y="94.3918" width="454" height="293" rx="22" transform="rotate(-12 0 94.3918)" fill="white"/>
</clipPath>
<clipPath id="clip1_0_2928">
<rect width="24" height="24" fill="white" transform="translate(18.977 106.716) rotate(-12)"/>
</clipPath>
<clipPath id="clip2_0_2928">
<rect width="24" height="24" fill="white" transform="translate(353.063 35.7031) rotate(-12)"/>
</clipPath>
</defs>
</svg>
