<svg width="418" height="457" viewBox="0 0 418 457" fill="none" xmlns="http://www.w3.org/2000/svg">
<rect x="111.696" y="0.623393" width="319" height="379" rx="11.5" transform="rotate(16.9633 111.696 0.623393)" fill="white" stroke="#989EB1"/>
<mask id="mask0_0_2577" style="mask-type:alpha" maskUnits="userSpaceOnUse" x="43" y="29" width="348" height="344">
<rect x="121.188" y="26.0271" width="284.602" height="278.116" rx="12" transform="rotate(16.9633 121.188 26.0271)" fill="#E4E7F1"/>
</mask>
<g mask="url(#mask0_0_2577)">
<path d="M114.04 338.518L111.497 337.743L111.81 336.716L114.353 337.492C114.846 337.642 115.269 337.685 115.622 337.621C115.975 337.558 116.264 337.407 116.488 337.171C116.717 336.936 116.886 336.64 116.995 336.282C117.095 335.955 117.117 335.626 117.061 335.294C117.009 334.964 116.857 334.665 116.605 334.398C116.354 334.126 115.983 333.915 115.49 333.765L113.241 333.079L110.652 341.566L109.39 341.181L112.294 331.661L115.805 332.732C116.525 332.951 117.095 333.261 117.516 333.661C117.937 334.061 118.209 334.52 118.332 335.039C118.456 335.553 118.433 336.092 118.261 336.654C118.075 337.264 117.787 337.746 117.399 338.099C117.01 338.452 116.532 338.666 115.966 338.741C115.401 338.812 114.759 338.738 114.04 338.518ZM118.298 340.117L118.344 339.967C118.499 339.457 118.718 339.007 118.999 338.616C119.282 338.221 119.611 337.905 119.989 337.667C120.368 337.425 120.782 337.276 121.234 337.218C121.686 337.156 122.159 337.2 122.651 337.35C123.148 337.502 123.567 337.729 123.908 338.034C124.254 338.335 124.517 338.691 124.697 339.103C124.882 339.512 124.981 339.959 124.995 340.445C125.01 340.926 124.94 341.421 124.784 341.931L124.738 342.082C124.583 342.592 124.365 343.042 124.083 343.433C123.802 343.824 123.47 344.139 123.087 344.38C122.71 344.617 122.295 344.767 121.842 344.829C121.395 344.888 120.924 344.842 120.427 344.69C119.93 344.539 119.51 344.313 119.168 344.013C118.827 343.709 118.564 343.353 118.379 342.944C118.2 342.532 118.103 342.085 118.088 341.604C118.072 341.123 118.142 340.627 118.298 340.117ZM119.554 340.336L119.508 340.486C119.4 340.839 119.34 341.185 119.327 341.525C119.315 341.859 119.356 342.172 119.448 342.462C119.545 342.754 119.699 343.008 119.909 343.224C120.12 343.437 120.394 343.594 120.73 343.696C121.061 343.797 121.372 343.818 121.661 343.759C121.957 343.697 122.224 343.571 122.462 343.382C122.701 343.192 122.909 342.956 123.086 342.671C123.269 342.384 123.415 342.064 123.522 341.711L123.568 341.561C123.675 341.212 123.731 340.869 123.739 340.533C123.752 340.194 123.71 339.879 123.613 339.587C123.521 339.293 123.371 339.037 123.16 338.82C122.955 338.605 122.684 338.446 122.348 338.344C122.017 338.243 121.704 338.224 121.408 338.286C121.117 338.35 120.849 338.478 120.605 338.67C120.366 338.859 120.158 339.098 119.979 339.387C119.802 339.671 119.66 339.987 119.554 340.336ZM129.578 336.361L126.515 346.404L125.298 346.033L128.362 335.99L129.578 336.361ZM132.997 347.06L134.108 343.418C134.193 343.139 134.21 342.879 134.159 342.64C134.114 342.397 133.998 342.186 133.81 342.005C133.622 341.823 133.365 341.683 133.038 341.583C132.733 341.49 132.449 341.461 132.186 341.495C131.927 341.53 131.707 341.613 131.524 341.743C131.346 341.875 131.227 342.038 131.167 342.235L129.957 341.866C130.034 341.613 130.176 341.382 130.383 341.174C130.589 340.965 130.845 340.798 131.151 340.672C131.462 340.543 131.807 340.472 132.187 340.459C132.573 340.443 132.98 340.501 133.407 340.631C133.922 340.788 134.348 341.013 134.687 341.307C135.031 341.603 135.26 341.961 135.375 342.382C135.495 342.8 135.475 343.272 135.314 343.8L134.308 347.095C134.237 347.33 134.18 347.587 134.138 347.865C134.1 348.144 134.094 348.392 134.118 348.609L134.086 348.714L132.824 348.329C132.806 348.171 132.814 347.971 132.85 347.729C132.887 347.483 132.936 347.26 132.997 347.06ZM134.146 344.044L133.9 344.898L132.677 344.525C132.332 344.42 132.016 344.354 131.729 344.329C131.443 344.298 131.191 344.31 130.975 344.363C130.759 344.416 130.577 344.511 130.431 344.647C130.286 344.779 130.18 344.954 130.114 345.172C130.046 345.395 130.034 345.613 130.079 345.826C130.123 346.04 130.229 346.232 130.396 346.402C130.569 346.569 130.804 346.698 131.1 346.788C131.471 346.901 131.822 346.923 132.153 346.852C132.484 346.782 132.767 346.658 133.002 346.482C133.241 346.307 133.4 346.115 133.478 345.905L133.817 346.645C133.73 346.819 133.586 346.996 133.383 347.177C133.18 347.358 132.934 347.517 132.645 347.652C132.361 347.785 132.044 347.872 131.693 347.913C131.348 347.95 130.984 347.911 130.601 347.794C130.121 347.647 129.729 347.425 129.424 347.128C129.124 346.831 128.922 346.495 128.817 346.12C128.718 345.742 128.728 345.357 128.848 344.965C128.963 344.586 129.139 344.275 129.375 344.032C129.612 343.785 129.9 343.609 130.237 343.502C130.576 343.391 130.957 343.345 131.38 343.364C131.803 343.384 132.256 343.467 132.74 343.615L134.146 344.044ZM138.769 343.624L136.95 349.587L135.74 349.219L137.898 342.144L139.075 342.503L138.769 343.624ZM141.33 343.148L140.98 344.27C140.887 344.218 140.795 344.176 140.705 344.143C140.62 344.108 140.521 344.073 140.408 344.039C140.129 343.953 139.869 343.922 139.629 343.944C139.389 343.966 139.171 344.033 138.975 344.145C138.779 344.256 138.604 344.408 138.45 344.599C138.302 344.787 138.176 345.006 138.071 345.255L137.672 345.348C137.802 344.921 137.966 344.532 138.163 344.183C138.364 343.834 138.598 343.544 138.865 343.311C139.133 343.073 139.428 342.915 139.752 342.838C140.082 342.757 140.438 342.776 140.822 342.893C140.909 342.919 141.006 342.961 141.113 343.017C141.221 343.069 141.293 343.113 141.33 343.148ZM140.882 347.006L140.928 346.856C141.084 346.346 141.302 345.895 141.583 345.505C141.866 345.11 142.196 344.793 142.573 344.556C142.952 344.314 143.367 344.164 143.818 344.107C144.27 344.045 144.743 344.089 145.235 344.239C145.732 344.39 146.151 344.618 146.492 344.922C146.838 345.223 147.101 345.58 147.281 345.992C147.466 346.401 147.565 346.848 147.579 347.334C147.594 347.815 147.524 348.31 147.368 348.82L147.323 348.971C147.167 349.481 146.949 349.931 146.667 350.322C146.386 350.712 146.054 351.028 145.671 351.269C145.294 351.506 144.879 351.656 144.426 351.718C143.979 351.777 143.508 351.731 143.011 351.579C142.514 351.428 142.094 351.202 141.752 350.902C141.411 350.598 141.148 350.242 140.963 349.833C140.784 349.421 140.687 348.974 140.672 348.493C140.656 348.012 140.727 347.516 140.882 347.006ZM142.138 347.225L142.092 347.375C141.984 347.728 141.924 348.074 141.911 348.413C141.899 348.748 141.94 349.061 142.032 349.351C142.129 349.643 142.283 349.897 142.493 350.113C142.705 350.326 142.978 350.483 143.314 350.585C143.645 350.686 143.956 350.707 144.245 350.648C144.541 350.585 144.808 350.46 145.046 350.27C145.285 350.081 145.493 349.844 145.67 349.56C145.853 349.273 145.999 348.953 146.106 348.6L146.152 348.449C146.259 348.101 146.315 347.758 146.323 347.422C146.336 347.083 146.294 346.768 146.197 346.476C146.106 346.181 145.955 345.926 145.745 345.709C145.539 345.494 145.268 345.335 144.932 345.233C144.601 345.132 144.288 345.112 143.992 345.175C143.701 345.238 143.433 345.366 143.189 345.559C142.95 345.748 142.742 345.987 142.563 346.275C142.386 346.56 142.244 346.876 142.138 347.225ZM151.257 346.218L149.099 353.293L147.882 352.922L150.04 345.848L151.257 346.218ZM150.521 343.943C150.581 343.747 150.691 343.599 150.849 343.5C151.013 343.402 151.212 343.389 151.447 343.461C151.678 343.531 151.834 343.653 151.915 343.825C152 343.999 152.013 344.184 151.953 344.38C151.896 344.567 151.784 344.709 151.616 344.806C151.454 344.899 151.258 344.911 151.027 344.84C150.791 344.769 150.632 344.649 150.55 344.481C150.474 344.31 150.464 344.13 150.521 343.943ZM155.919 353.873L158.563 345.203L159.779 345.574L156.716 355.617L155.604 355.278L155.919 353.873ZM151.795 350.335L151.837 350.198C152.002 349.657 152.217 349.187 152.482 348.786C152.752 348.383 153.058 348.059 153.4 347.816C153.745 347.573 154.114 347.419 154.506 347.352C154.903 347.283 155.313 347.313 155.736 347.442C156.181 347.578 156.545 347.774 156.828 348.032C157.117 348.287 157.332 348.598 157.473 348.965C157.619 349.329 157.697 349.739 157.705 350.194C157.714 350.649 157.665 351.146 157.558 351.685L157.374 352.287C157.168 352.791 156.932 353.229 156.666 353.6C156.405 353.973 156.112 354.27 155.788 354.49C155.467 354.712 155.116 354.85 154.732 354.904C154.35 354.955 153.934 354.911 153.485 354.774C153.071 354.648 152.719 354.443 152.429 354.159C152.144 353.877 151.926 353.536 151.776 353.138C151.63 352.741 151.556 352.304 151.554 351.827C151.558 351.347 151.638 350.849 151.795 350.335ZM153.053 350.569L153.011 350.706C152.903 351.059 152.837 351.401 152.813 351.732C152.792 352.064 152.822 352.371 152.903 352.653C152.984 352.935 153.121 353.179 153.316 353.386C153.511 353.589 153.772 353.74 154.099 353.839C154.5 353.962 154.855 353.977 155.164 353.886C155.478 353.795 155.755 353.635 155.997 353.404C156.239 353.172 156.454 352.907 156.641 352.606L157.122 351.031C157.142 350.775 157.137 350.521 157.104 350.268C157.077 350.012 157.012 349.773 156.908 349.55C156.81 349.325 156.664 349.126 156.469 348.952C156.279 348.78 156.031 348.647 155.726 348.554C155.395 348.453 155.088 348.435 154.805 348.502C154.529 348.565 154.278 348.693 154.052 348.886C153.828 349.075 153.631 349.315 153.461 349.607C153.297 349.895 153.161 350.215 153.053 350.569ZM169.34 349.047L169.445 349.079L169.132 350.106L169.027 350.074C168.386 349.878 167.818 349.819 167.323 349.897C166.829 349.97 166.402 350.143 166.043 350.414C165.685 350.682 165.384 351.014 165.139 351.411C164.898 351.809 164.71 352.23 164.574 352.675L164.148 354.074C164.019 354.497 163.954 354.887 163.955 355.245C163.957 355.598 164.011 355.912 164.118 356.188C164.224 356.463 164.369 356.691 164.552 356.871C164.74 357.052 164.954 357.179 165.194 357.252C165.473 357.337 165.737 357.361 165.987 357.323C166.238 357.28 166.467 357.186 166.674 357.039C166.886 356.889 167.072 356.694 167.232 356.452C167.391 356.21 167.52 355.929 167.617 355.611C167.703 355.328 167.751 355.045 167.761 354.762C167.773 354.475 167.738 354.207 167.656 353.958C167.576 353.705 167.445 353.486 167.263 353.302C167.087 353.115 166.851 352.976 166.554 352.886C166.218 352.783 165.879 352.771 165.537 352.847C165.2 352.921 164.897 353.062 164.629 353.27C164.366 353.476 164.174 353.73 164.053 354.031L163.415 353.829C163.625 353.36 163.865 352.978 164.136 352.684C164.412 352.387 164.708 352.168 165.023 352.026C165.343 351.88 165.674 351.805 166.014 351.799C166.359 351.79 166.707 351.839 167.055 351.945C167.531 352.09 167.913 352.305 168.203 352.588C168.493 352.872 168.703 353.198 168.834 353.567C168.965 353.931 169.026 354.317 169.017 354.723C169.013 355.127 168.951 355.525 168.831 355.917C168.694 356.366 168.503 356.768 168.257 357.122C168.011 357.475 167.716 357.762 167.373 357.981C167.034 358.202 166.656 358.339 166.239 358.393C165.823 358.447 165.372 358.4 164.889 358.253C164.374 358.096 163.957 357.854 163.637 357.528C163.319 357.197 163.087 356.817 162.942 356.387C162.797 355.956 162.727 355.506 162.732 355.036C162.737 354.566 162.808 354.109 162.943 353.664L163.117 353.095C163.322 352.424 163.59 351.786 163.922 351.182C164.254 350.578 164.665 350.066 165.156 349.643C165.651 349.223 166.242 348.948 166.93 348.819C167.617 348.691 168.42 348.767 169.34 349.047ZM176.982 355.766L176.539 357.218C176.301 357.998 176.031 358.635 175.727 359.129C175.424 359.622 175.092 359.993 174.731 360.24C174.37 360.487 173.981 360.628 173.566 360.663C173.156 360.696 172.719 360.641 172.257 360.5C171.891 360.389 171.567 360.24 171.286 360.054C171.004 359.868 170.77 359.637 170.583 359.36C170.401 359.081 170.273 358.751 170.198 358.371C170.124 357.991 170.112 357.554 170.162 357.06C170.213 356.565 170.333 356.006 170.524 355.383L170.966 353.932C171.204 353.151 171.474 352.519 171.774 352.034C172.079 351.55 172.41 351.189 172.769 350.951C173.129 350.708 173.513 350.573 173.922 350.545C174.335 350.518 174.77 350.575 175.228 350.715C175.599 350.828 175.925 350.977 176.206 351.163C176.493 351.346 176.729 351.573 176.913 351.843C177.099 352.11 177.228 352.43 177.299 352.804C177.377 353.176 177.391 353.606 177.341 354.096C177.292 354.586 177.172 355.143 176.982 355.766ZM175.263 357.043L175.827 355.193C175.958 354.766 176.046 354.383 176.092 354.044C176.144 353.703 176.157 353.402 176.132 353.141C176.106 352.881 176.041 352.657 175.937 352.467C175.837 352.28 175.701 352.124 175.529 352C175.363 351.873 175.162 351.774 174.927 351.702C174.639 351.614 174.368 351.591 174.112 351.632C173.858 351.669 173.619 351.78 173.396 351.964C173.177 352.15 172.972 352.418 172.779 352.769C172.586 353.12 172.408 353.564 172.244 354.1L171.68 355.95C171.55 356.377 171.459 356.762 171.407 357.103C171.359 357.446 171.349 357.753 171.376 358.023C171.405 358.289 171.468 358.52 171.565 358.717C171.662 358.913 171.793 359.077 171.958 359.208C172.129 359.337 172.33 359.436 172.561 359.506C172.857 359.597 173.134 359.619 173.391 359.574C173.647 359.528 173.887 359.408 174.108 359.214C174.335 359.016 174.543 358.739 174.733 358.382C174.924 358.021 175.101 357.575 175.263 357.043ZM184.514 358.064L184.071 359.516C183.833 360.296 183.563 360.933 183.26 361.426C182.957 361.92 182.625 362.29 182.263 362.538C181.902 362.785 181.514 362.926 181.098 362.961C180.688 362.993 180.252 362.939 179.79 362.798C179.424 362.686 179.1 362.537 178.818 362.351C178.537 362.165 178.302 361.934 178.115 361.658C177.933 361.379 177.805 361.049 177.731 360.669C177.656 360.289 177.644 359.852 177.695 359.357C177.745 358.863 177.866 358.304 178.056 357.681L178.499 356.229C178.737 355.449 179.006 354.816 179.306 354.331C179.611 353.848 179.943 353.487 180.301 353.248C180.661 353.006 181.046 352.87 181.454 352.843C181.867 352.816 182.303 352.873 182.76 353.012C183.131 353.125 183.457 353.275 183.739 353.461C184.026 353.644 184.262 353.87 184.446 354.141C184.631 354.407 184.76 354.728 184.832 355.102C184.909 355.473 184.923 355.904 184.873 356.394C184.824 356.884 184.704 357.441 184.514 358.064ZM182.795 359.341L183.36 357.49C183.49 357.063 183.578 356.68 183.624 356.342C183.676 356 183.689 355.699 183.664 355.439C183.639 355.179 183.574 354.954 183.469 354.765C183.369 354.577 183.233 354.422 183.062 354.298C182.895 354.171 182.695 354.071 182.459 354C182.172 353.912 181.9 353.888 181.644 353.93C181.39 353.966 181.152 354.077 180.929 354.262C180.71 354.447 180.504 354.716 180.311 355.067C180.118 355.418 179.94 355.861 179.777 356.397L179.212 358.248C179.082 358.675 178.991 359.059 178.939 359.401C178.892 359.744 178.882 360.05 178.909 360.321C178.937 360.587 179 360.818 179.097 361.014C179.195 361.211 179.326 361.375 179.491 361.506C179.661 361.634 179.862 361.734 180.093 361.804C180.389 361.894 180.666 361.917 180.923 361.871C181.18 361.826 181.419 361.706 181.64 361.511C181.867 361.314 182.076 361.037 182.265 360.68C182.457 360.319 182.633 359.873 182.795 359.341ZM192.188 356.031L189.284 365.551L188.022 365.166L190.926 355.646L192.188 356.031ZM194.87 361.53L194.555 362.563L190.292 361.263L190.607 360.23L194.87 361.53ZM196.824 357.445L196.509 358.478L191.599 356.98L191.914 355.947L196.824 357.445ZM195.832 363.768L195.878 363.617C196.033 363.107 196.252 362.657 196.533 362.266C196.815 361.871 197.145 361.555 197.523 361.317C197.901 361.075 198.316 360.926 198.767 360.868C199.22 360.806 199.692 360.85 200.185 361C200.682 361.152 201.101 361.38 201.442 361.684C201.788 361.985 202.051 362.341 202.23 362.753C202.415 363.162 202.515 363.61 202.529 364.095C202.544 364.576 202.474 365.072 202.318 365.582L202.272 365.732C202.117 366.242 201.898 366.692 201.617 367.083C201.336 367.474 201.004 367.789 200.621 368.03C200.243 368.267 199.828 368.417 199.376 368.479C198.929 368.538 198.457 368.492 197.96 368.34C197.463 368.189 197.044 367.963 196.702 367.663C196.361 367.359 196.098 367.003 195.913 366.594C195.734 366.182 195.637 365.735 195.621 365.254C195.606 364.773 195.676 364.278 195.832 363.768ZM197.087 363.986L197.041 364.136C196.934 364.49 196.873 364.836 196.861 365.175C196.849 365.51 196.889 365.822 196.982 366.112C197.079 366.404 197.232 366.658 197.443 366.875C197.654 367.087 197.928 367.244 198.263 367.347C198.595 367.448 198.905 367.468 199.195 367.409C199.49 367.347 199.757 367.221 199.996 367.032C200.235 366.843 200.443 366.606 200.62 366.322C200.803 366.034 200.948 365.714 201.056 365.361L201.102 365.211C201.208 364.862 201.265 364.52 201.272 364.183C201.285 363.844 201.243 363.529 201.146 363.237C201.055 362.943 200.904 362.687 200.694 362.471C200.488 362.255 200.218 362.096 199.882 361.994C199.551 361.893 199.237 361.874 198.942 361.936C198.651 362 198.383 362.128 198.139 362.32C197.9 362.509 197.691 362.748 197.513 363.037C197.335 363.321 197.194 363.637 197.087 363.986ZM205.763 364.059L203.944 370.023L202.734 369.654L204.892 362.579L206.069 362.938L205.763 364.059ZM208.324 363.583L207.974 364.705C207.881 364.653 207.789 364.611 207.698 364.578C207.614 364.543 207.515 364.508 207.402 364.474C207.123 364.389 206.863 364.357 206.623 364.379C206.383 364.401 206.165 364.468 205.969 364.58C205.772 364.691 205.598 364.843 205.444 365.034C205.296 365.223 205.17 365.441 205.065 365.691L204.665 365.783C204.796 365.356 204.959 364.967 205.156 364.618C205.358 364.27 205.592 363.979 205.858 363.746C206.126 363.508 206.422 363.351 206.746 363.273C207.075 363.192 207.432 363.211 207.815 363.328C207.903 363.354 208 363.396 208.106 363.452C208.214 363.504 208.287 363.548 208.324 363.583ZM210.204 365.736L208.475 371.405L207.259 371.034L209.417 363.959L210.568 364.31L210.204 365.736ZM209.387 367.524L208.831 367.332C208.983 366.85 209.182 366.422 209.429 366.05C209.678 365.673 209.968 365.369 210.301 365.137C210.634 364.905 211.004 364.76 211.412 364.704C211.822 364.643 212.262 364.684 212.732 364.828C213.064 364.929 213.354 365.07 213.604 365.251C213.855 365.427 214.052 365.647 214.196 365.91C214.34 366.173 214.42 366.479 214.438 366.827C214.456 367.176 214.397 367.572 214.261 368.017L212.823 372.731L211.613 372.362L213.033 367.707C213.146 367.336 213.174 367.02 213.115 366.76C213.061 366.5 212.936 366.286 212.74 366.116C212.545 365.942 212.295 365.809 211.99 365.716C211.632 365.607 211.314 365.579 211.036 365.632C210.758 365.686 210.513 365.801 210.301 365.98C210.09 366.158 209.907 366.381 209.754 366.649C209.607 366.914 209.484 367.205 209.387 367.524ZM214.174 368.255L213.288 368.256C213.41 367.869 213.587 367.516 213.818 367.196C214.054 366.877 214.332 366.614 214.652 366.407C214.977 366.201 215.338 366.07 215.736 366.015C216.136 365.956 216.56 365.995 217.009 366.132C217.388 366.248 217.708 366.4 217.97 366.589C218.236 366.78 218.437 367.011 218.573 367.281C218.716 367.548 218.79 367.859 218.796 368.214C218.803 368.568 218.738 368.968 218.602 369.412L217.184 374.061L215.968 373.69L217.39 369.028C217.511 368.632 217.542 368.305 217.482 368.049C217.427 367.789 217.3 367.581 217.1 367.425C216.906 367.266 216.654 367.139 216.344 367.044C216.079 366.963 215.829 366.937 215.596 366.966C215.364 366.995 215.153 367.069 214.964 367.188C214.777 367.302 214.615 367.451 214.478 367.633C214.346 367.816 214.245 368.024 214.174 368.255ZM223.556 374.683L224.666 371.041C224.752 370.762 224.769 370.502 224.718 370.263C224.673 370.021 224.556 369.809 224.369 369.628C224.181 369.446 223.923 369.306 223.597 369.206C223.291 369.113 223.007 369.084 222.744 369.118C222.486 369.153 222.265 369.236 222.083 369.366C221.904 369.498 221.785 369.662 221.725 369.858L220.516 369.489C220.593 369.236 220.735 369.005 220.941 368.797C221.148 368.588 221.404 368.421 221.709 368.295C222.02 368.166 222.366 368.095 222.746 368.082C223.132 368.066 223.538 368.124 223.966 368.254C224.48 368.411 224.907 368.636 225.246 368.93C225.589 369.226 225.818 369.584 225.933 370.005C226.053 370.423 226.033 370.895 225.872 371.423L224.867 374.718C224.795 374.954 224.738 375.21 224.696 375.488C224.659 375.767 224.652 376.015 224.677 376.232L224.645 376.337L223.383 375.952C223.364 375.794 223.373 375.594 223.408 375.352C223.445 375.106 223.494 374.883 223.556 374.683ZM224.704 371.667L224.458 372.521L223.235 372.148C222.891 372.043 222.575 371.977 222.287 371.952C222.001 371.922 221.75 371.933 221.534 371.986C221.317 372.039 221.136 372.134 220.99 372.27C220.844 372.402 220.739 372.577 220.672 372.795C220.604 373.018 220.593 373.236 220.637 373.449C220.681 373.663 220.787 373.855 220.955 374.025C221.128 374.192 221.362 374.321 221.659 374.411C222.029 374.524 222.38 374.546 222.711 374.475C223.042 374.405 223.325 374.281 223.56 374.105C223.799 373.93 223.958 373.738 224.036 373.529L224.375 374.268C224.289 374.442 224.144 374.619 223.941 374.8C223.738 374.981 223.492 375.14 223.203 375.276C222.92 375.408 222.603 375.495 222.252 375.536C221.907 375.573 221.543 375.534 221.159 375.417C220.68 375.27 220.287 375.048 219.983 374.751C219.683 374.454 219.48 374.118 219.375 373.743C219.276 373.365 219.286 372.98 219.406 372.588C219.522 372.209 219.698 371.898 219.934 371.655C220.171 371.408 220.458 371.232 220.796 371.125C221.135 371.014 221.515 370.968 221.938 370.988C222.361 371.007 222.815 371.09 223.298 371.238L224.704 371.667ZM231.419 370.67L231.136 371.599L227.311 370.432L227.594 369.504L231.419 370.67ZM229.413 368.179L230.623 368.548L228.475 375.59C228.401 375.83 228.383 376.022 228.42 376.166C228.457 376.311 228.528 376.421 228.634 376.496C228.74 376.571 228.86 376.629 228.995 376.671C229.096 376.701 229.203 376.724 229.317 376.74C229.437 376.753 229.528 376.762 229.588 376.766L229.294 377.755C229.188 377.756 229.053 377.746 228.888 377.724C228.727 377.708 228.537 377.667 228.319 377.601C228.022 377.51 227.768 377.368 227.555 377.175C227.343 376.981 227.204 376.725 227.14 376.405C227.081 376.082 227.123 375.685 227.267 375.214L229.413 368.179Z" fill="#142251"/>
</g>
<g clip-path="url(#clip0_0_2577)">
<g clip-path="url(#clip1_0_2577)">
<path d="M302.406 254.319L316.995 206.731C319.672 206.861 322.348 206.432 324.85 205.472C327.353 204.511 329.628 203.041 331.532 201.153C333.435 199.265 334.925 197.002 335.906 194.508C336.887 192.013 337.338 189.342 337.23 186.663C337.122 183.985 336.458 181.358 335.28 178.95C334.102 176.542 332.436 174.406 330.387 172.678C328.338 170.949 325.952 169.666 323.38 168.909C320.808 168.153 318.108 167.941 315.449 168.285L306.384 145.409C309.776 142.974 312.28 139.499 313.517 135.511C314.907 131.012 314.606 126.161 312.671 121.868C310.735 117.576 307.299 114.138 303.008 112.201C298.717 110.263 293.865 109.96 289.366 111.347C284.867 112.735 281.029 115.718 278.574 119.735L212.476 99.4714C212.619 96.6128 212.124 93.7582 211.029 91.1141C209.933 88.47 208.263 86.1026 206.14 84.183C204.017 82.2635 201.494 80.8399 198.753 80.0152C196.012 79.1905 193.123 78.9854 190.293 79.4146C187.463 79.8439 184.764 80.8968 182.391 82.4972C180.018 84.0976 178.031 86.2054 176.573 88.6682C175.114 91.131 174.222 93.8872 173.96 96.7373C173.697 99.5873 174.072 102.46 175.056 105.148L154.727 119.013C152.685 117.202 150.28 115.848 147.673 115.041C143.174 113.651 138.323 113.952 134.031 115.888C129.739 117.823 126.301 121.259 124.363 125.551C122.426 129.842 122.123 134.693 123.51 139.192C124.897 143.692 127.88 147.53 131.898 149.985L117.309 197.573C114.631 197.443 111.956 197.871 109.453 198.832C106.95 199.792 104.674 201.262 102.771 203.15C100.867 205.038 99.3777 207.301 98.3966 209.796C97.4155 212.29 96.9645 214.962 97.0722 217.64C97.18 220.319 97.8441 222.946 99.0225 225.354C100.201 227.762 101.867 229.898 103.916 231.626C105.965 233.355 108.352 234.638 110.924 235.394C113.495 236.15 116.197 236.363 118.855 236.018L127.921 258.895C124.528 261.33 122.023 264.805 120.786 268.793C119.396 273.292 119.698 278.143 121.633 282.435C123.568 286.728 127.004 290.166 131.296 292.103C135.587 294.04 140.438 294.344 144.938 292.956C149.437 291.569 153.275 288.586 155.73 284.568L221.828 304.832C221.685 307.691 222.179 310.545 223.275 313.189C224.371 315.833 226.041 318.2 228.163 320.12C230.286 322.039 232.809 323.463 235.55 324.288C238.291 325.112 241.18 325.318 244.01 324.889C246.84 324.459 249.539 323.407 251.912 321.806C254.284 320.206 256.272 318.099 257.73 315.636C259.189 313.173 260.082 310.418 260.344 307.568C260.607 304.718 260.232 301.845 259.249 299.157L279.578 285.293C281.587 287.062 283.942 288.395 286.494 289.205C289.046 290.016 291.738 290.287 294.4 290.002C297.062 289.716 299.636 288.881 301.958 287.547C304.279 286.214 306.299 284.413 307.887 282.258C309.475 280.102 310.598 277.64 311.184 275.028C311.771 272.416 311.807 269.71 311.292 267.083C310.776 264.455 309.72 261.964 308.19 259.767C306.66 257.569 304.691 255.714 302.406 254.319ZM246.774 287.168C244.163 286.376 241.414 286.149 238.709 286.503L229.645 263.626C232.904 261.289 235.346 257.987 236.628 254.188C237.909 250.388 237.965 246.282 236.788 242.448L265.918 224.722L280.107 255.73C276.984 258.245 274.729 261.677 273.661 265.543C272.593 269.408 272.766 273.511 274.155 277.272L253.825 291.137C251.783 289.328 249.379 287.975 246.774 287.168ZM136.904 255.294L127.838 232.417C131.098 230.081 133.541 226.78 134.823 222.98C136.106 219.18 136.162 215.074 134.984 211.241L164.115 193.514L178.304 224.521C175.18 227.035 172.925 230.468 171.857 234.333C170.789 238.199 170.963 242.302 172.353 246.064L152.024 259.93C149.986 258.113 147.581 256.758 144.971 255.958C142.361 255.158 139.61 254.931 136.904 255.294ZM145.359 152.528L160.058 184.649L129.882 203.011C128.875 202.025 127.762 201.152 126.563 200.41L141.153 152.822C142.562 152.879 143.972 152.781 145.359 152.528ZM187.53 117.135C190.141 117.928 192.892 118.154 195.598 117.799L204.663 140.676C201.403 143.012 198.959 146.314 197.677 150.114C196.394 153.914 196.338 158.021 197.516 161.854L168.386 179.58L154.197 148.572C157.321 146.058 159.575 142.625 160.643 138.76C161.711 134.895 161.538 130.792 160.148 127.03L180.478 113.165C182.519 114.975 184.924 116.328 187.53 117.135ZM297.397 149.011L306.463 171.888C303.204 174.225 300.761 177.526 299.479 181.326C298.198 185.125 298.142 189.232 299.319 193.065L270.188 210.793L255.999 179.784C259.123 177.27 261.378 173.837 262.446 169.972C263.514 166.107 263.341 162.004 261.952 158.242L282.281 144.375C284.318 146.191 286.723 147.545 289.332 148.345C291.941 149.145 294.692 149.373 297.397 149.011ZM213.2 165.504C211.37 164.943 209.747 163.851 208.536 162.368C207.326 160.884 206.583 159.075 206.401 157.169C206.219 155.264 206.606 153.347 207.514 151.661C208.421 149.975 209.808 148.596 211.499 147.699C213.191 146.801 215.11 146.425 217.015 146.619C218.919 146.812 220.724 147.566 222.2 148.784C223.677 150.003 224.758 151.633 225.309 153.466C225.859 155.3 225.853 157.256 225.292 159.086C224.537 161.539 222.84 163.593 220.573 164.796C218.306 165.999 215.655 166.254 213.2 165.504ZM202.619 170.083C203.626 171.069 204.738 171.941 205.937 172.683L191.347 220.271C189.939 220.214 188.528 220.313 187.142 220.566L172.443 188.446L202.619 170.083ZM181.247 236.705C181.808 234.875 182.899 233.252 184.383 232.042C185.866 230.832 187.675 230.089 189.581 229.907C191.487 229.724 193.404 230.112 195.09 231.019C196.776 231.927 198.155 233.314 199.052 235.005C199.95 236.696 200.325 238.615 200.132 240.52C199.939 242.425 199.185 244.229 197.966 245.706C196.747 247.182 195.118 248.264 193.284 248.814C191.451 249.364 189.495 249.359 187.664 248.798C185.211 248.043 183.158 246.346 181.955 244.079C180.752 241.812 180.497 239.16 181.247 236.705ZM200.602 223.109L215.192 175.52C219.072 175.684 222.911 174.673 226.206 172.618C227.783 176.167 230.396 179.156 233.701 181.195L219.112 228.783C215.232 228.619 211.393 229.631 208.097 231.686C206.52 228.137 203.908 225.147 200.602 223.109ZM253.057 167.598C252.496 169.429 251.404 171.052 249.921 172.262C248.437 173.472 246.628 174.215 244.722 174.397C242.816 174.579 240.899 174.192 239.214 173.284C237.528 172.377 236.149 170.99 235.251 169.299C234.354 167.608 233.978 165.688 234.171 163.784C234.365 161.879 235.118 160.074 236.337 158.598C237.556 157.122 239.186 156.04 241.019 155.49C242.853 154.939 244.809 154.945 246.639 155.506C249.092 156.261 251.145 157.958 252.348 160.225C253.551 162.492 253.806 165.144 253.057 167.598ZM221.103 238.8C222.934 239.361 224.557 240.452 225.767 241.936C226.977 243.419 227.72 245.228 227.902 247.134C228.084 249.04 227.697 250.957 226.79 252.643C225.882 254.329 224.495 255.707 222.804 256.605C221.113 257.503 219.194 257.878 217.289 257.685C215.384 257.492 213.58 256.738 212.103 255.519C210.627 254.3 209.545 252.671 208.995 250.837C208.444 249.003 208.45 247.048 209.011 245.217C209.766 242.764 211.464 240.711 213.73 239.508C215.997 238.305 218.649 238.05 221.103 238.8ZM231.687 234.222C230.68 233.235 229.566 232.363 228.367 231.621L242.956 184.032C244.366 184.09 245.777 183.991 247.165 183.738L261.862 215.859L231.687 234.222ZM276.857 136.355L256.529 150.222C253.431 147.467 249.519 145.798 245.388 145.468C241.256 145.138 237.129 146.165 233.633 148.392C231.987 144.588 229.144 141.425 225.537 139.383C221.93 137.34 217.755 136.53 213.646 137.075L204.58 114.198C206.607 112.721 208.326 110.863 209.638 108.726L275.736 128.99C275.626 131.495 276.007 133.997 276.857 136.355ZM157.445 267.947L177.774 254.081C180.872 256.836 184.783 258.505 188.915 258.836C193.048 259.166 197.175 258.139 200.67 255.911C202.317 259.715 205.16 262.879 208.767 264.921C212.374 266.964 216.549 267.774 220.658 267.229L229.722 290.106C227.695 291.582 225.977 293.441 224.665 295.577L158.567 275.313C158.677 272.808 158.296 270.306 157.445 267.947ZM288.941 251.776L274.243 219.655L304.42 201.291C305.427 202.278 306.541 203.151 307.74 203.893L293.151 251.482C291.741 251.424 290.329 251.523 288.941 251.776ZM327.095 190.297C326.534 192.127 325.443 193.75 323.959 194.96C322.476 196.17 320.667 196.913 318.761 197.095C316.855 197.278 314.938 196.89 313.252 195.983C311.567 195.075 310.188 193.688 309.29 191.997C308.393 190.306 308.017 188.387 308.21 186.482C308.403 184.577 309.157 182.773 310.376 181.296C311.595 179.82 313.224 178.738 315.058 178.188C316.892 177.638 318.848 177.643 320.678 178.205C323.131 178.96 325.184 180.657 326.387 182.924C327.59 185.191 327.845 187.842 327.095 190.297ZM297.845 120.581C299.675 121.142 301.298 122.234 302.509 123.717C303.719 125.201 304.462 127.01 304.644 128.916C304.826 130.821 304.439 132.738 303.531 134.424C302.624 136.11 301.237 137.489 299.546 138.386C297.855 139.284 295.935 139.66 294.031 139.466C292.126 139.273 290.321 138.519 288.845 137.301C287.368 136.082 286.287 134.452 285.736 132.619C285.186 130.785 285.192 128.829 285.753 126.999C286.508 124.546 288.205 122.493 290.472 121.29C292.739 120.087 295.391 119.832 297.845 120.581ZM196.042 89.3708C197.872 89.932 199.495 91.0233 200.705 92.5069C201.915 93.9904 202.659 95.7995 202.841 97.7053C203.023 99.6112 202.635 101.528 201.728 103.214C200.82 104.9 199.433 106.279 197.742 107.176C196.051 108.074 194.132 108.449 192.227 108.256C190.322 108.063 188.518 107.309 187.041 106.09C185.565 104.871 184.483 103.242 183.933 101.408C183.383 99.5745 183.388 97.6188 183.95 95.7884C184.704 93.3353 186.401 91.2819 188.668 90.0788C190.935 88.8756 193.587 88.621 196.042 89.3708ZM132.744 130.713C133.305 128.883 134.396 127.26 135.88 126.05C137.363 124.84 139.172 124.097 141.078 123.915C142.984 123.733 144.901 124.12 146.587 125.027C148.273 125.935 149.652 127.322 150.549 129.013C151.447 130.704 151.822 132.623 151.629 134.528C151.436 136.433 150.682 138.237 149.463 139.714C148.244 141.19 146.615 142.272 144.781 142.822C142.947 143.372 140.992 143.367 139.161 142.806C136.708 142.051 134.655 140.354 133.452 138.087C132.249 135.82 131.994 133.168 132.744 130.713ZM107.208 214.007C107.769 212.177 108.861 210.554 110.344 209.343C111.828 208.133 113.637 207.39 115.543 207.208C117.448 207.026 119.365 207.413 121.051 208.321C122.737 209.228 124.116 210.615 125.013 212.306C125.911 213.998 126.287 215.917 126.093 217.822C125.9 219.726 125.146 221.531 123.927 223.007C122.709 224.484 121.079 225.565 119.245 226.116C117.412 226.666 115.456 226.66 113.626 226.099C111.173 225.344 109.119 223.647 107.916 221.38C106.713 219.113 106.458 216.462 107.208 214.007ZM136.459 283.723C134.628 283.161 133.005 282.07 131.795 280.587C130.585 279.103 129.842 277.294 129.66 275.388C129.478 273.482 129.865 271.565 130.772 269.879C131.68 268.194 133.067 266.815 134.758 265.917C136.449 265.02 138.368 264.644 140.273 264.837C142.178 265.03 143.982 265.784 145.459 267.003C146.935 268.222 148.017 269.851 148.567 271.685C149.118 273.519 149.112 275.475 148.551 277.305C147.796 279.758 146.099 281.811 143.832 283.015C141.565 284.218 138.913 284.472 136.459 283.723ZM238.262 314.933C236.431 314.372 234.808 313.28 233.598 311.797C232.388 310.313 231.645 308.504 231.463 306.598C231.281 304.692 231.668 302.775 232.576 301.09C233.483 299.404 234.87 298.025 236.561 297.128C238.252 296.23 240.172 295.854 242.076 296.047C243.981 296.241 245.786 296.994 247.262 298.213C248.738 299.432 249.82 301.062 250.371 302.895C250.921 304.729 250.915 306.685 250.354 308.515C249.599 310.968 247.902 313.021 245.635 314.224C243.368 315.427 240.716 315.682 238.262 314.933ZM289.468 280.008C287.637 279.447 286.014 278.355 284.804 276.872C283.594 275.388 282.851 273.579 282.669 271.673C282.487 269.767 282.874 267.85 283.781 266.165C284.689 264.479 286.076 263.1 287.767 262.203C289.458 261.305 291.377 260.929 293.282 261.122C295.187 261.316 296.992 262.069 298.468 263.288C299.944 264.507 301.026 266.137 301.576 267.97C302.127 269.804 302.121 271.76 301.56 273.59C300.805 276.043 299.108 278.096 296.841 279.299C294.574 280.502 291.922 280.757 289.468 280.008Z" fill="url(#paint0_linear_0_2577)"/>
</g>
</g>
<rect x="121.52" y="26.6512" width="283.602" height="277.116" rx="11.5" transform="rotate(16.9633 121.52 26.6512)" stroke="#989EB1"/>
<defs>
<linearGradient id="paint0_linear_0_2577" x1="159.949" y1="94.3685" x2="274.355" y2="309.935" gradientUnits="userSpaceOnUse">
<stop stop-color="#142251"/>
<stop offset="1" stop-color="#E4E7F1"/>
</linearGradient>
<clipPath id="clip0_0_2577">
<rect width="242" height="242" fill="white" transform="translate(136.932 51) rotate(17.0442)"/>
</clipPath>
<clipPath id="clip1_0_2577">
<rect width="242" height="242" fill="white" transform="translate(136.932 51) rotate(17.0442)"/>
</clipPath>
</defs>
</svg>
